<!DOCTYPE svg PUBLIC "-//W3C//DTD SVG 1.1//EN" "http://www.w3.org/Graphics/SVG/1.1/DTD/svg11.dtd">
<svg xmlns="http://www.w3.org/2000/svg" version="1.1"
enable-background="new 0 0 59527 84189" viewBox="0 0 595 841" >
<g >
	<path fill="#ddd" stroke="#555" stroke-thickness="5" stroke-linejoin="round" d="M149.528,229.271h55.417v36.948h-55.417
		C142.437,253.903,142.726,241.586,149.528,229.271z M146.642,187.704h55.417v36.948h-55.417
		C139.84,212.336,139.551,200.021,146.642,187.704z M149.528,146.138h55.417v36.948h-55.417
		C143.527,170.771,143.141,158.454,149.528,146.138z M251.129,141.519c25.506,0,46.185,20.678,46.185,46.185
		c0,11.16-3.958,21.394-10.546,29.377l-1.213,1.334l-0.073,1.422c-1.017,22.822,0.71,69.869,16.661,149.631
		c19.996,116.127,9.097,82.037,13.646,123.055h-52.37l40.053,37.716c-17.781,16.344-33.538,34.713-45.416,56.96l14.625,59.271
		l14.625,12.313l1.541,37.525c-81.336,29.864-200.519,23.675-244.009,5.579L0,690.536l19.435-67.161l43.395,9.236l4.33-12.313
		l-42.337-20.782v-20.015c-10.104-23.86-13.129-47.723-9.237-71.585l146.254-26.169c22.129-7.12,37.539-20.961,49.261-38.488
		l13.511,12.724l1.63-3.131c4.01-8.082,6.872-16.471,6.411-25.563c-17.563-154.34-14.192-150.861-13.86-205.762l0.005-0.867
		l-0.327-0.296c-8.357-8.358-13.526-19.904-13.526-32.658C204.945,162.197,225.622,141.519,251.129,141.519z"/>
    
	<path fill="#ffffff" stroke="#eee" stroke-linejoin="round" d="M246.511,430.946c38.261,0,69.277,31.016,69.277,69.276
		S284.771,569.5,246.511,569.5s-69.277-31.017-69.277-69.277S208.25,430.946,246.511,430.946z M198.017,141.519l143.942,39.259
		h86.211l4.619,5.388h16.164l3.849-3.464l135.475,7.12c6.67,15.138,6.67,28.544,0,43.683L448.18,238.98l-5.398-2.668l-10.391-0.111
		l-4.617,6.372l-54.64-0.214c-59.271,1.968-115.846,16.676-175.117,37.716C189.671,233.888,189.404,187.704,198.017,141.519z"/>
</g>
</svg>
