<svg xmlns="http://www.w3.org/2000/svg" viewBox="0 0 360 60" width="360" height="60"><g fill="#333" fill-rule="evenodd"><path d="M313.384 26.866v15.377c0 1.167-.16 1.948-.48 2.344-.32.397-.97.594-1.95.594h-15.15c-1.018 0-1.676-.188-1.977-.564-.304-.375-.453-1.168-.453-2.373V21.215h-5.258c.34 1.357.51 3.24.51 5.65v14.02c0 2.676.5 4.495 1.498 5.455s2.797 1.44 5.398 1.44h15.432c1.094 0 1.903-.28 2.43-.846v5.37c0 1.17-.16 1.95-.48 2.346-.32.394-.97.593-1.95.593H294.56c-2.41 0-4.296-.132-5.652-.397l.453 2.998h21.876c2.6 0 4.4-.5 5.398-1.5 1-.998 1.5-2.797 1.5-5.396V21.215h-5.26c.34 1.357.51 3.24.51 5.65zM46.238 14.515c-.075.886-.206 1.725-.393 2.516l-6.88 27.69-8.713-33.116h-7.076L14.8 44.626l-7-26.802c-.188-.717-.358-1.452-.508-2.207-.15-.753-.226-1.374-.226-1.864 0-.265.02-.537.056-.818.038-.284.096-.727.17-1.33H0c.715 1.922 1.215 3.307 1.498 4.155.283.848.614 1.968.99 3.364L10.23 47.78h6.84l8.365-33.236L34.37 47.78h6.724l7.404-29.56c.34-1.357.698-2.603 1.076-3.732.376-1.132.828-2.092 1.358-2.884h-4.58c0 1.056-.036 2.026-.114 2.91zM74.106 14.544c2.035 0 3.655.112 4.863.34 1.205.225 1.94.375 2.202.45l-.283-3.73H53.08c.34 1.356.508 3.24.508 5.653V42.13c0 2.41-.17 4.296-.51 5.65h27.81l.284-3.333c-.83.15-1.715.255-2.656.31-.944.057-2.412.085-4.41.085H59.354v-13.68H72.75c1.96 0 3.618.057 4.974.17 1.357.113 2.167.19 2.43.227v-3.733c-1.205.15-2.24.256-3.108.313-.868.055-2.3.083-4.297.083H59.353v-13.68h14.752zM173.762 28.11c0-2.675-.497-4.494-1.497-5.455-.997-.96-2.796-1.44-5.4-1.44H145.5l-.394 3.11c1.355-.34 3.24-.512 5.65-.512h15.83c1.015 0 1.675.182 1.976.538.303.36.452 1.122.452 2.29v.34c0 1.17-.16 1.95-.48 2.346-.32.394-.97.593-1.95.593h-15.092c-2.6 0-4.4.497-5.4 1.496-.996 1.002-1.496 2.8-1.496 5.398v4.072c0 2.675.5 4.494 1.497 5.454 1 .96 2.8 1.44 5.4 1.44h14.13c1.28 0 2.1-.083 2.46-.253.356-.17.743-.65 1.16-1.442l.45 1.695h4.578c-.337-1.354-.508-3.24-.508-5.65m-4.748.114c0 1.166-.16 1.948-.48 2.343-.32.397-.97.594-1.95.594h-14.81c-1.017 0-1.676-.188-1.978-.564-.3-.375-.452-1.168-.452-2.372V35.46c0-1.17.16-1.952.48-2.348.32-.396.972-.592 1.95-.592h17.24v9.724zM115.626 13.047c-1.15-.962-3.232-1.443-6.246-1.443H84.452c.226.792.374 1.595.45 2.404.076.81.115 1.893.115 3.25v24.87c0 1.36-.038 2.45-.115 3.28-.076.828-.224 1.62-.45 2.372h24.928c3.014 0 5.096-.48 6.246-1.44 1.15-.96 1.723-2.818 1.723-5.568v-6.556c0-1.885-.368-3.156-1.103-3.816-.737-.66-2.007-1.026-3.815-1.1 1.772 0 3.033-.34 3.787-1.02.753-.678 1.13-1.94 1.13-3.788v-5.877c0-2.75-.575-4.607-1.724-5.568zm-4.044 28.855c0 1.17-.157 1.95-.48 2.347-.32.394-.968.592-1.95.592H90.785V30.257h18.37c1.017 0 1.676.19 1.978.566.3.378.45 1.17.45 2.374m0-8.477c0 1.168-.157 1.948-.48 2.345-.32.397-.968.594-1.95.594H90.785V14.543h18.37c1.017 0 1.676.19 1.978.565.3.376.45 1.167.45 2.376v7.234zM185.915 45.18c-1.017 0-1.677-.188-1.976-.564-.305-.375-.454-1.168-.454-2.372v-15.49c0-1.17.16-1.95.48-2.346.32-.396.97-.595 1.95-.595h13.736c2.413 0 4.298.173 5.653.51l-.227-3.108h-19.443c-2.602 0-4.402.5-5.4 1.497-.998 1-1.497 2.797-1.497 5.4v12.774c0 2.675.5 4.494 1.498 5.454.997.96 2.797 1.44 5.4 1.44h19.84l.392-3.108c-1.355.34-3.238.51-5.65.51h-14.303zM273.42 21.863c-.453.436-.87 1.048-1.244 1.838l-.224-2.485h-4.75c.34 1.357.51 3.24.51 5.652v15.262c0 2.41-.17 4.296-.51 5.65h5.765c-.338-1.354-.507-3.24-.507-5.65V27.545c0-1.167.16-1.95.48-2.347.322-.396.97-.594 1.95-.594h3.956c.866 0 1.978.057 3.335.17 1.358.113 2.6.263 3.73.452l.287-4.013h-10.46c-1.093 0-1.866.217-2.316.648zM256.462 21.215h-15.997c-2.602 0-4.4.5-5.4 1.497-.997 1-1.497 2.797-1.497 5.4v12.774c0 2.675.5 4.494 1.498 5.454 1 .96 2.797 1.44 5.4 1.44h15.996c2.6 0 4.4-.496 5.397-1.498.998-.998 1.5-2.795 1.5-5.396V28.11c0-2.675-.502-4.494-1.5-5.455-1-.96-2.798-1.44-5.398-1.44zm2.15 21.029c0 1.166-.162 1.947-.482 2.343-.32.397-.97.594-1.952.594h-15.43c-1.016 0-1.678-.188-1.978-.564-.304-.375-.454-1.168-.454-2.373v-15.49c0-1.168.162-1.95.48-2.345.322-.396.97-.595 1.95-.595h15.432c1.02 0 1.68.19 1.98.568.302.377.454 1.17.454 2.373v15.49zM219.098 45.18c-1.017 0-1.677-.188-1.978-.564-.304-.375-.452-1.168-.452-2.372v-18.43h13.226v-2.6h-13.226v-6.162l-4.75.905v5.258h-4.126v2.598h4.126v17.073c0 2.675.5 4.494 1.5 5.454s2.797 1.44 5.396 1.44h12.04l.397-3.108c-1.356.34-3.24.51-5.652.51h-6.5zM349.71 13.93c-.166-.175-.374-.338-.628-.488.51-.073.895-.252 1.148-.533.256-.287.386-.647.386-1.085 0-.343-.085-.646-.254-.916-.17-.267-.396-.452-.676-.555-.28-.106-.732-.158-1.354-.158h-2.47v5.81h1.174v-2.424h.24c.268 0 .465.02.59.064.122.044.24.124.353.244.11.12.314.4.617.853l.848 1.264h1.402l-.71-1.132c-.28-.452-.502-.766-.667-.944zm-1.806-1.276h-.868V11.18h.917c.475 0 .758.007.854.02.192.032.337.11.444.228.104.12.156.278.156.475 0 .172-.04.318-.117.434-.082.117-.192.2-.33.246-.142.048-.493.07-1.056.07z" /><path d="M348.475 6c-3.406 0-6.25 2.402-6.94 5.604H132.104c-2.6 0-4.4.5-5.4 1.498-.998 1-1.496 2.8-1.496 5.4v2.713h-4.298v2.598h4.298V42.13c0 2.41-.17 4.296-.51 5.65h5.766c-.34-1.354-.508-3.24-.508-5.65V23.812h13.452v-2.598h-13.452v-4.07c0-1.17.16-1.95.48-2.346.32-.398.97-.594 1.95-.594h6.67c.58 0 188.634.01 202.43.028.544 3.382 3.455 5.974 6.99 5.974 3.92 0 7.102-3.182 7.102-7.106 0-3.922-3.18-7.102-7.103-7.102zm0 12.79c-3.14 0-5.686-2.548-5.686-5.688 0-3.14 2.546-5.685 5.685-5.685 3.14 0 5.686 2.545 5.686 5.685 0 3.14-2.544 5.687-5.685 5.687z" /></g></svg>