<svg version="1.1" id="Ebene_1" xmlns="http://www.w3.org/2000/svg" xmlns:xlink="http://www.w3.org/1999/xlink" 
	 viewBox="0 0 595.275 841.891" enable-background="new 0 0 595.275 841.891"
	 xml:space="preserve">
<path id="Shape" fill="#131313" d="M455.045,57.134H408.81l48.081,52.174v24.833h-99.034v-29.076h48.071L357.856,52.89V28.02h97.188
	V57.134L455.045,57.134z M338.225,57.134h-46.234l48.08,52.174v24.833h-99.035v-29.076h48.077L241.036,52.89V28.02h97.189V57.134
	L338.225,57.134z M222.549,58.316H172.66v45.532h49.889v30.293H137.2V28.02h85.349V58.316L222.549,58.316z"/>
<path id="Shape_1_" fill="#1572B6" d="M69.216,751.194L18.519,182.588h557.051l-50.744,568.514l-228.123,63.242L69.216,751.194z"/>
<path id="Shape_2_" fill="#33A9DC" d="M297.048,766.006l184.329-51.104l43.367-485.821H297.048V766.006z"/>
<g transform="translate(55.000000, 142.000000)">
	<path id="Shape_3_" fill="#FFFFFF" d="M242.045,293.086h92.28l6.373-71.414h-98.653v-69.74h0.241h174.628l-1.673,18.711
		l-17.141,192.174H242.045V293.086z"/>
	<path id="Shape_4_" fill="#EBEBEB" d="M242.463,474.193l-0.305,0.087l-77.667-20.972l-4.966-55.618h-37.738H89.523l9.768,109.494
		l142.85,39.658l0.322-0.09V474.193z"/>
	<path id="Shape_5_" fill="#FFFFFF" d="M328.397,359.866l-8.396,93.396l-77.78,20.992v72.555l142.964-39.624l1.049-11.778
		l12.132-135.54H328.397z"/>
	<path id="Shape_6_" fill="#EBEBEB" d="M242.287,151.932v43.313V221.5v0.172H74.061h-0.222l-1.399-15.675l-3.178-35.353
		l-1.667-18.711H242.287z"/>
	<path id="Shape_7_" fill="#EBEBEB" d="M242.045,293.092v43.315v26.25v0.173h-76.461h-0.223l-1.396-15.674l-3.18-35.354
		l-1.667-18.711H242.045z"/>
</g>
</svg>
