<?xml version="1.0" encoding="utf-8"?>
<!DOCTYPE svg PUBLIC "-//W3C//DTD SVG 1.1//EN" "http://www.w3.org/Graphics/SVG/1.1/DTD/svg11.dtd">
<svg version="1.1" id="Ebene_1" xmlns="http://www.w3.org/2000/svg" xmlns:xlink="http://www.w3.org/1999/xlink" x="0px" y="0px"
viewBox="0 0 595.275 841.891" enable-background="new 0 0 595.275 841.891"
	 xml:space="preserve">
<path id="Shape_2_" fill="#33A9DC" d="M297.05,766.008l184.329-51.104l43.367-485.821H297.05V766.008z"/>
<g transform="translate(55.000000, 142.000000)">
	<path id="Shape_3_" fill="#FFFFFF" d="M242.047,293.088h92.28l6.371-71.416h-98.651v-69.738h0.241h174.628l-1.675,18.711
		l-17.141,192.174H242.047V293.088z"/>
	<path id="Shape_4_" fill="#EBEBEB" d="M242.465,474.193l-0.305,0.087l-77.667-20.972l-4.966-55.618h-37.738H89.525l9.768,109.494
		l142.85,39.658l0.322-0.091V474.193L242.465,474.193z"/>
	<path id="Shape_5_" fill="#FFFFFF" d="M328.397,359.866l-8.396,93.396l-77.78,20.992v72.555l142.964-39.624l1.049-11.778
		l12.132-135.54L328.397,359.866L328.397,359.866z"/>
	<path id="Shape_6_" fill="#EBEBEB" d="M242.289,151.932v43.313V221.5v0.172H74.063h-0.222l-1.399-15.675l-3.178-35.353
		l-1.667-18.711L242.289,151.932L242.289,151.932z"/>
	<path id="Shape_7_" fill="#EBEBEB" d="M242.047,293.094v43.313v26.25v0.173h-76.461h-0.223l-1.396-15.674l-3.18-35.354
		l-1.667-18.711L242.047,293.094L242.047,293.094z"/>
</g>

<path fill="#F7E28B" d="M296.838,764.535l183.689-50.546l43.148-485.734h-226.84"/>
<path fill="#323330" d="M296.838,367.564v-69.038h-1.233H121.776l4.931,69.038H296.838z M296.838,620.297l-78.901-20.959
	l-4.931-55.479h-69.038l8.629,109.722l144.241,39.45V620.297z"/>
<path fill="#777777" d="M395.464,367.564l-22.191,231.771l-77.668,20.959v72.733l143.008-39.45l32.056-355.054H295.604v69.038
	L395.464,367.564L395.464,367.564z"/>

		<path id="Shape_16_" fill="#E44F26" d="M68.819,750.002L18.301,183.389h555.1L522.83,749.911l-227.319,63.021L68.819,750.002z"/>
		<path id="Shape_15_" fill="#F1662A" d="M295.851,764.762l183.683-50.925l43.217-484.119h-226.9V764.762z"/>
		<path id="Shape_14_" fill="#EBEBEB" d="M295.851,439.868h-91.957l-6.354-71.162h98.31v-69.495h-0.241H121.595l1.665,18.646
			l17.08,191.501h155.512V439.868z"/>
		<path id="Shape_13_" fill="#EBEBEB" d="M295.851,620.344l-0.305,0.085l-77.395-20.899l-4.95-55.421h-37.605h-32.152l9.736,109.109
			l142.35,39.519l0.321-0.09V620.344z"/>
		<path id="Shape_12_" fill="#010101" d="M69.948,29.408h35.316v34.89h32.306v-34.89h35.317v105.66h-35.315V99.689h-32.304v35.379
			h-35.32V29.408L69.948,29.408z"/>
		<path id="Shape_11_" fill="#010101" d="M219.327,64.446h-31.091V29.408h97.512v35.038h-31.104v70.623h-35.316L219.327,64.446
			L219.327,64.446L219.327,64.446z"/>
		<path id="Shape_10_" fill="#010101" d="M301.224,29.408h36.826l22.649,37.125l22.632-37.125h36.835v105.66h-35.17V82.697
			l-24.298,37.566h-0.608l-24.311-37.566v52.372h-34.558V29.408H301.224z"/>
		<path id="Shape_1_" fill="#010101" d="M437.742,29.408h35.326v70.734h49.661v34.924h-84.987V29.408L437.742,29.408z"/>
		<path id="Shape_8_" fill="#FFFFFF" d="M295.61,439.868v69.49h85.573l-8.066,90.124l-77.507,20.922v72.301l142.464-39.486
			l1.045-11.74l16.33-182.95l1.694-18.66H438.42H295.61z"/>
		<path id="Shape_9_" fill="#FFFFFF" d="M295.61,299.211v43.162v26.162v0.171h167.635h0.223l1.396-15.619l3.163-35.23l1.662-18.646
			H295.61z"/>

</svg>
