<svg xmlns="http://www.w3.org/2000/svg" xmlns:xlink="http://www.w3.org/1999/xlink" viewBox="0 0 465 465">
  <defs>
    <linearGradient id="k" x1="799.174" x2="799.174" y1="160.863" y2="37.264" xlink:href="#a" gradientUnits="userSpaceOnUse" gradientTransform="matrix(0.98818235,0,0,0.97629316,-468.40362,18.24442)"/>
    <linearGradient id="a">
      <stop offset="0" stop-color="#fff" stop-opacity=".125"/>
      <stop offset=".488" stop-color="#fff" stop-opacity=".667"/>
      <stop offset="1" stop-color="#fff" stop-opacity=".333"/>
    </linearGradient>
    <linearGradient id="l" x1="144.455" x2="144.455" y1="125.528" y2="49.868" xlink:href="#a" gradientUnits="userSpaceOnUse" gradientTransform="matrix(0.98818235,0,0,0.97629316,2.747605,2.76864)"/>
    <linearGradient id="j" x1="321.145" x2="321.145" y1="223.372" y2="58.616" xlink:href="#b" gradientUnits="userSpaceOnUse" gradientTransform="translate(7e-6,10e-6)"/>
    <linearGradient id="b">
      <stop offset="0" stop-opacity=".196"/>
      <stop offset=".217" stop-opacity=".392"/>
      <stop offset=".729" stop-color="#fff" stop-opacity=".392"/>
      <stop offset="1" stop-color="#fff" stop-opacity=".196"/>
    </linearGradient>
    <linearGradient id="i" x1="616.42" x2="719.128" y1="198.354" y2="198.354" xlink:href="#c" gradientUnits="userSpaceOnUse" gradientTransform="translate(-476.37392,12.10157)"/>
    <linearGradient id="c">
      <stop offset="0" stop-color="#fff"/>
      <stop offset=".782" stop-color="#424242"/>
      <stop offset=".854" stop-color="silver"/>
      <stop offset=".942" stop-color="#cdcdcd"/>
      <stop offset="1" stop-color="#717171" />
    </linearGradient>
    <radialGradient id="h" cx="709.286" cy="209.337" r="118.319" xlink:href="#c" gradientUnits="userSpaceOnUse" gradientTransform="matrix(0.13759816,0,0,0.13609148,134.90416,204.31189)" fx="709.286" fy="209.337"/>
    <radialGradient id="g" cx="709.286" cy="216.648" r="117.494" xlink:href="#d" fx="709.286" fy="216.648" gradientTransform="matrix(0.63950952,0,0,0.63950952,-221.09433,95.247744)" gradientUnits="userSpaceOnUse"/>
    <linearGradient id="d">
      <stop offset="0" stop-color="#d6d6d6"/>
      <stop offset="1" stop-color="#515151"/>
    </linearGradient>
    <radialGradient id="f" cx="709.286" cy="209.337" r="118.319" xlink:href="#c" fx="709.286" fy="209.337" gradientTransform="matrix(0.80476135,0,0,0.79594932,-338.30507,61.355379)" gradientUnits="userSpaceOnUse"/>
    <linearGradient id="e" x1="-1761.254" x2="-1109.384" y1="641.497" y2="-6.431" gradientTransform="matrix(0,-1,1.0060852,0,8.663407,-1101.6572)" gradientUnits="userSpaceOnUse" xlink:href="#b"/>
  </defs>
  <path class="background-on" fill="#eeeeee" d="M.5 452.525c0 6.635 5.375 11.975 12.05 11.975h439.905c6.674 0 12.047-5.34 12.047-11.975V12.475C464.5 5.84 459.127.5 452.452.5H12.55C5.874.5.5 5.84.5 12.474z"/>
  <path fill="url(#e)" d="M12.072 0C5.384 0 0 5.352 0 12v441c0 6.648 5.384 12 12.072 12h440.856c6.688 0 12.072-5.352 12.072-12V12c0-6.648-5.384-12-12.072-12zm24.21 21.006h392.44c6.758 0 12.245 5.49 12.245 12.248v397.08c0 6.76-5.487 12.247-12.246 12.247H36.28c-6.758 0-12.247-5.49-12.247-12.245V33.255c0-6.76 5.49-12.25 12.248-12.25zm0 5.12c-5.15 0-9.25 4.1-9.25 9.25V428.21c0 5.15 4.1 9.25 9.25 9.25h392.44c5.148 0 9.245-4.1 9.245-9.25V35.376c0-5.15-4.097-9.248-9.246-9.248z"/>
  <path fill="url(#f)" d="M232.5 137.413a96.383 96.383 0 0 0-96.382 96.384 96.383 96.383 0 0 0 96.382 96.38 96.383 96.383 0 0 0 96.384-96.38 96.383 96.383 0 0 0-96.384-96.384zm0 21.234a75.15 75.15 0 0 1 75.15 75.15 75.15 75.15 0 0 1-75.15 75.148 75.15 75.15 0 0 1-75.148-75.148 75.15 75.15 0 0 1 75.148-75.15z"/>
  <path fill="url(#g)" d="M157.362 233.796c0-41.498 33.64-75.138 75.14-75.138 41.496 0 75.137 33.64 75.137 75.138 0 41.498-33.645 75.14-75.14 75.14-41.5 0-75.14-33.642-75.14-75.14z"/>
  <path fill="url(#h)" d="M232.5 217.316c-9.1 0-16.48 7.38-16.48 16.48 0 9.1 7.38 16.48 16.48 16.48 9.102 0 16.48-7.38 16.48-16.48 0-9.102-7.378-16.48-16.48-16.48z"/>
  <rect width="21.213" height="59.751" x="221.894" y="180.58" fill="url(#i)" ry="10.607"/>
    <path class="switch-on" fill="Green" stroke="url(#j)" d="M156.646 72.42c-2.66 0-4.304 2.19-4.8 4.804l-7.103 37.342-.23 1.22c-.04.212-.055.42-.056.625h-.03c-.172 1.16-.046 2.385.547 3.57l51.056 100.9h72.94l51.057-100.9c.594-1.186.72-2.41.547-3.567h-.026c0-.203-.015-.41-.055-.623l-.23-1.21-7.104-37.353c-.5-2.614-2.147-4.803-4.807-4.803h-151.71z" stroke-linecap="round" stroke-linejoin="round" />
  <path fill="url(#k)" stroke="url(#l)" stroke-width=".982" d="M157.54 73.472c-2.628 0-4.252 2.138-4.743 4.69l-7.02 36.456-.227 1.19c-.04.208-.054.41-.055.612h174.01c0-.2-.014-.404-.054-.61l-.222-1.182-7.02-36.466c-.492-2.552-2.118-4.69-4.747-4.69z" stroke-linecap="round" stroke-linejoin="round"/>
  <path fill-opacity=".275" d="M36.28 21.006c-6.758 0-12.247 5.49-12.247 12.248V428.21c0 6.76 5.49 12.25 12.248 12.25h392.44c6.76 0 12.25-5.49 12.25-12.25V33.255c0-6.76-5.487-12.248-12.246-12.248H36.28zm0 3h392.44c5.15 0 9.247 4.1 9.247 9.248V428.21c0 5.15-4.097 9.25-9.246 9.25H36.28c-5.148 0-9.247-4.1-9.247-9.25V33.255c0-5.15 4.1-9.248 9.248-9.248zm252.29 158.142l-7.61 15.04c12.908 14.916 13.435 51.073 9.286 74.61-2.35 3.526-5.01 6.82-7.94 9.843.063-5.095.127-10.713.19-10.75-3.423-5.46-9.985-24.562-13.1-39.13l-25.822-5.823v-5.053h-21.68v5.054l-25.822 5.824c-3.128 14.633-9.698 33.843-13.144 39.204v10.88c-2.76-2.826-5.288-5.883-7.54-9.15-4.29-23.324-3.956-59.834 8.833-75.15l-7.774-15.37c-12.188 14.456-18.796 30.863-19.05 49.06l-.002.03c.208 14.33 4.51 28.19 11.147 39.6 6.53 16.537 18.427 31.06 33.96 38.484 9.516 3.924 19.71 5.948 30.003 5.96 10.333-.022 20.562-2.072 30.105-6.034 14.93-7.165 26.493-20.9 33.143-36.666 17.905-27.618 15.037-64.654-7.177-90.456zM136.35 238.41c-.242 2.617-.377 5.242-.405 7.87.038 37.156 21.394 76.996 54.918 93.02 13.207 5.445 27.35 8.255 41.637 8.272 14.34-.03 28.534-2.876 41.777-8.375 33.44-16.047 54.73-55.828 54.78-92.918-.163-2.478-.385-4.3-.48-4.756-6.65 47.572-46.043 85.598-94.077 85.65-51.39-.064-95.69-37.436-98.15-88.767z"/>
</svg>
