<svg xmlns="http://www.w3.org/2000/svg" viewBox="0 0 400 400">
    <path fill="#880000" stroke-width="5" stroke="#cccccc" d="M191.53 365.6c0-9.85-8.62-29.5-8.62-29.5-5.2-12 1.2-21.82 14.3-21.82h117.1V197.16c0-13.05 9.8-19.45 21.75-14.26l.2.07c1.53.67 19.97 8.57 29.4 8.58 6.55 0 12.65-1.82 17.85-4.98l1.4-.9c9.1-6.17 15.1-16.64 15.1-28.52 0-11.87-6-22.34-15.17-28.5-.45-.32-.9-.62-1.4-.9-5.2-3.17-11.3-5-17.82-5-9.4 0-27.82 7.92-29.4 8.58l-.2.1c-11.9 5.17-21.7-1.23-21.7-14.28V0h-18.8c-1.6.34-3.25.53-4.95.53H197.2c-13.1 0-19.5 9.8-14.25 21.8 0 0 8.63 19.66 8.63 29.52 0 19-15.4 34.4-34.4 34.4-18.98 0-34.38-15.4-34.38-34.4 0-9.86 8.63-29.52 8.63-29.52 5.27-12-1.14-21.8-14.24-21.8H23.8c-1.7 0-3.35-.2-4.94-.53H0v117.16c.02 13.07 9.82 19.47 21.8 14.2 0 0 19.66-8.6 29.52-8.6 19 0 34.4 15.4 34.4 34.38 0 19-15.4 34.4-34.4 34.4-9.86 0-29.52-8.62-29.52-8.62C9.82 177.66.02 184.06 0 197.12V314.3h117.13c13.1 0 19.5 9.82 14.24 21.8 0 0-8.62 19.67-8.62 29.53 0 19 15.4 34.4 34.4 34.4s34.38-15.4 34.38-34.4z" />
</svg>