<?xml version="1.0" encoding="iso-8859-1"?>
<!DOCTYPE svg PUBLIC "-//W3C//DTD SVG 1.1//EN" "http://www.w3.org/Graphics/SVG/1.1/DTD/svg11.dtd">
<svg version="1.1" id="Ebene_1" xmlns="http://www.w3.org/2000/svg" xmlns:xlink="http://www.w3.org/1999/xlink" x="0px" y="0px"
	 width="100px" height="110px"  enable-background="new 0 0 100 110" xml:space="preserve">
<g>
	<path fill="#e0e0e0" stroke="#fff" stroke-width="2" stroke-miterlimit="1"  opacity="0.5" d="M93.718,22.965L56.283,1.659c-3.887-2.212-8.679-2.212-12.565,0L6.283,22.965
		C2.395,25.177,0,29.267,0,33.693v42.613c0,4.426,2.395,8.516,6.283,10.728l37.435,21.307C45.661,109.446,47.831,110,50,110
		s4.338-0.554,6.283-1.659l37.435-21.307C97.606,84.822,100,80.732,100,76.306V33.693C100,29.267,97.606,25.177,93.718,22.965"/>
	<g opacity="0.25">
		<g>
			<path fill="#ffffff" d="M90.703,28.115L53.268,6.809C52.274,6.245,51.146,5.945,50,5.945v98.108c1.145,0,2.274-0.297,3.268-0.863l37.435-21.307
				c2.015-1.146,3.266-3.283,3.266-5.578V33.693C93.968,31.397,92.717,29.261,90.703,28.115"/>
		</g>
	</g>
</g>
</svg>
