<svg xmlns="http://www.w3.org/2000/svg" width="345" height="96">
    <path fill="#e31b22" d="M16 15.867h64.004v64H16v-64z" />
    <path fill="#e11d25" d="M117.777 63.865c-3.115 0-5.038 1.767-5.038 4.443 0 1.26.4 2.232 1.19 2.94.68.595 1.65.997 2.89 1.192l1.83.287c1.15.176 1.54.313 2.05.753.51.443.75 1.147.75 1.967 0 1.836-1.41 2.915-3.71 2.915-1.77 0-2.99-.42-4.29-1.724l-1.15 1.153c1.48 1.48 3.02 2.08 5.39 2.08 3.27 0 5.43-1.7 5.43-4.46 0-1.3-.47-2.38-1.33-3.11-.67-.57-1.39-.88-2.88-1.11l-1.73-.26c-.82-.13-1.64-.44-2.12-.86-.49-.42-.71-1.04-.71-1.81 0-1.74 1.21-2.91 3.31-2.91 1.65 0 2.69.47 3.66 1.35l1.082-1.08c-1.35-1.22-2.678-1.72-4.69-1.72zm13.79 0c-1.548 0-2.96.576-4.025 1.636-1.478 1.48-1.478 3.03-1.478 6.37 0 3.34 0 4.89 1.478 6.37 1.065 1.07 2.477 1.64 4.024 1.64 2.808 0 4.95-1.72 5.46-4.68h-1.68c-.42 1.92-1.812 3.18-3.78 3.18-1.04 0-2.03-.39-2.715-1.1-.99-1.01-1.1-2.09-1.1-5.39 0-3.29.12-4.37 1.11-5.39.69-.7 1.68-1.1 2.72-1.1 1.97 0 3.32 1.26 3.74 3.18h1.73c-.53-2.96-2.63-4.68-5.46-4.68zM96 63.977v1.793h1.79v-1.793H96zm10.43.025l-5.68 11.796v1.437h6.28v2.5h1.568v-2.5h1.923v-1.437h-1.92v-4.462h-1.56v4.462h-4.57l5.68-11.796h-1.7zm37.866 0l-5.79 15.733h1.79l1.26-3.56h6.87l1.26 3.56h1.793l-5.78-15.733h-1.42zm9.732 0v15.733h5.39c1.636 0 3.027-.51 3.98-1.46 1.635-1.637 1.547-4.4 1.547-6.588 0-2.187.088-4.595-1.547-6.23-.953-.947-2.344-1.455-3.98-1.455h-5.39zm18.45 0l-5.784 15.733h1.786l1.26-3.56h6.875l1.26 3.56h1.787l-5.767-15.733h-1.416zm-16.77 1.5h3.422c1.215 0 2.275.31 3.095 1.15 1.085 1.13 1.04 3.116 1.04 5.035 0 1.924.045 4.268-1.04 5.396-.82.84-1.88 1.148-3.095 1.148h-3.422V65.5zm-10.684.908l2.92 8.305h-5.88l2.96-8.305zm28.187 0l2.92 8.305h-5.88l2.97-8.305zm-77.12 2.45v10.875h1.6V68.86h-1.6z" />
    <path fill="#fff" d="M24.003 23.865v41.87H45.55v-3.213H27.49V27.097h41.025v27.608c.556.01 1.18.073 1.9.41.43.2.878.567 1.293 1h.137l.156.08v-32.33H24.01zm8.48 7.31v7.348H63.52v-7.348H32.484zm0 11.323v7.33h7.35v-7.33h-7.35zm11.857 0v7.33h7.324v-7.33H44.34zm11.83 0v7.33h7.35v-7.33h-7.35zm6.485 9.678c-.15 0-.302.03-.47.077-.165.054-.306.133-.41.235-.13.103-.242.234-.336.415-.09.177-.15.42-.18.703l.07 6.875c0 .85-.02 1.53-.06 2.05-.04.52-.08.86-.16 1.04 0-.02 0-.04-.02-.04s-.04-.01-.06-.03l-2.94-1.33c-.13-.1-.26-.19-.43-.25-.17-.06-.36-.09-.53-.09-.13 0-.23.02-.34.04-.11.03-.22.07-.32.12-.1.03-.2.09-.27.16l-.24.22c-.13.15-.21.34-.28.53-.07.19-.08.38-.06.59 0 .18.04.37.14.55.09.18.2.32.35.45l4.49 2.72c.33.31.59.54.78.7.19.17.36.31.49.41.12.14.23.24.35.34.12.1.26.25.41.43.02.21.04.42.04.67v.725c0 .255 0 .494-.02.724-.02.23-.02.45-.02.687h7.03v-2.8c.18-.433.4-.882.63-1.332.23-.45.45-.906.69-1.37.23-.46.41-.924.57-1.41.16-.483.24-.996.24-1.51 0-.356.04-.75.1-1.17.04-.215.06-.405.08-.61l.02.02v-1.08h-.04c-.03-.226-.06-.436-.13-.63-.12-.318-.35-.587-.71-.76-.18 0-.368 0-.53.017-.17.01-.307.06-.43.137-.13.103-.248.26-.337.45-.09.19-.136.45-.136.785v-1.39c0-.18 0-.35-.02-.51-.016-.165-.06-.32-.138-.45-.104-.125-.24-.222-.436-.31-.19-.09-.47-.137-.8-.137-.18 0-.33.02-.47.06-.07.018-.14.028-.2.058-.056.03-.104.08-.153.12-.19.15-.316.337-.39.566-.107.206-.166.425-.18.67-.014.244-.02.464-.02.644v-.7c0-.18 0-.39-.02-.63-.015-.25-.06-.46-.137-.67-.1-.23-.26-.435-.45-.59-.195-.152-.45-.236-.785-.236-.36 0-.63.1-.82.28-.2.175-.355.395-.458.624-.08.23-.126.46-.14.7l-.02.415v-5.51c0-.18-.02-.36-.1-.528-.08-.16-.19-.31-.313-.47-.157-.13-.32-.23-.49-.31-.17-.08-.33-.12-.51-.12zm-16.2 10.346v6.114H27.997v3.232H59.56c0-.283 0-.576.02-.883v-.08c.004-.048.02-.194.02-.448v-.06c-.075-.062-.14-.106-.216-.175-.182-.16-.42-.366-.664-.59l-1.646-.996H49.55v-6.114h-3.096zm3.993 0v3.214h2.783c-.07-.118-.15-.23-.21-.353-.22-.438-.29-1-.35-1.547h-.08c-.01-.07.03-.146.02-.22 0-.06-.04-.113-.04-.175h.06c-.01-.3-.01-.61.02-.91h-2.2z" />
    <path fill="#28292b" fill-rule="evenodd" d="M324.06 12.298c-2.41.103-3.856 1.665-4.432 3.687h-134.02c-1.542 0-3.227-.143-4.584.072-1.396.22-2.265.776-2.705 1.954-.39 1.04-.4 2.72-.38 4.29h-2.79v1.73c.93.01 1.88-.04 2.78 0v8.04c0 2.67.16 5.31-.31 7.59 0 .02.05.01.08 0h3.68c-.46-2.28-.3-4.92-.3-7.59v-8.04h8.79V22.3h-8.79v-2.41c0-.757.01-1.518.37-1.88.36-.355 1.08-.297 1.88-.297 45.41 0 90.97.004 136.27 0v.073c.36 1.846 1.54 3.2 3.22 3.68.97.28 2.07.167 2.93-.15 1.57-.576 2.75-1.88 3-3.755.13-.95-.12-2.01-.53-2.78-.69-1.29-2.12-2.56-4.21-2.48zm-.076.977c1.147-.08 2.134.43 2.71.98.62.587 1.122 1.427 1.2 2.555.08 1.17-.41 2.06-.976 2.705-.572.648-1.494 1.152-2.56 1.2-1.132.06-2.05-.375-2.704-.975-.63-.582-1.148-1.47-1.2-2.554-.06-1.255.395-2.05.976-2.705.53-.6 1.46-1.12 2.554-1.2zm-1.2 1.806v3.69h.677v-1.58h.23s.41-.02.68.38l.83 1.2h.83l-.67-1.12s-.11-.31-.52-.53c0 0 .59.01.83-.52.23-.53.03-1.15-.38-1.35-.4-.2-1-.15-1.2-.15h-1.28zm.75.61h1.055c.24 0 .44.2.44.45 0 .26-.2.46-.45.46h-1.06v-.9zM96.014 16c-.034.005.006.038 0 .07.752 1.82 1.34 3.74 1.88 5.715 1.626 5.947 3.204 11.973 4.81 17.886h4.512c1.817-7.24 3.652-14.49 5.488-21.72 1.93 7.26 3.847 14.48 5.786 21.72h4.434c1.514-5.98 2.992-12.02 4.51-18.03.46-1.83.954-3.9 1.804-5.34.048-.08.092-.19.077-.29h-2.934c.11 2.18-.46 3.95-.9 5.71-1.32 5.32-2.63 10.54-3.98 15.86-1.92-7.18-3.73-14.38-5.64-21.56h-4.66c-1.82 7.18-3.65 14.41-5.49 21.57-1.41-5.34-2.75-10.62-4.13-15.93-.45-1.75-1.16-3.58-.75-5.63h-4.81zm34.8 0c-.024 0-.024.067 0 .07.38 1.75.304 3.69.304 5.715v12.17c0 2.018.018 3.98-.377 5.71h18.27c.05-.747.11-1.42.15-2.18-2.13.343-4.56.226-6.99.226-2.43 0-4.95.04-7.29 0 .02-2.96-.04-5.93 0-8.86 4.54.08 9.43-.21 13.61.23V26.6c-2.06.306-4.37.3-6.69.3h-6.91v-8.95h7.37c2.5 0 4.94-.043 6.92.524-.03-.835-.1-1.65-.14-2.48h-18.2V16zm20.522 0c-.023 0-.003.043 0 .07.465 1.66.3 3.7.3 5.715v12.17c0 2.018.155 4.034-.3 5.71h13.678c3.046 0 6.367.34 7.367-1.73.73-1.5.45-4.21.45-6.386 0-.8.01-1.54-.14-2.18-.32-1.31-1.22-1.68-2.71-1.81 1.5-.02 2.4-.52 2.71-1.73.15-.62.15-1.34.15-2.11 0-2.24.19-4.75-.6-6.16-1.06-1.92-4.45-1.58-7.36-1.58h-13.53zm4.132 1.95h10.073c1.07 0 2.81-.214 3.24.377.27.367.3 1.197.3 1.88v4.21c0 .698-.04 1.503-.37 1.8-.53.464-2.03.3-3.08.3h-10.15v-8.5c0-.022-.02-.07 0-.07zm82.23.3c-.947.21-1.957.38-2.933.605v3.45h-2.705v1.73c.893.014 1.845-.045 2.705 0 .005 3.47 0 7.035 0 10.52.005 1.174.058 2.268.375 3.156.333.92.884 1.37 1.808 1.66.897.29 1.913.3 3.153.3h7.07c.09-.67.19-1.37.23-2.02-1.77.45-4.33.3-6.61.3-.69 0-1.71.12-2.25-.08-.88-.32-.67-2.13-.67-3.38 0-3.5.04-7.03.08-10.44h8.64V22.3h-8.71c-.06-1.156.08-2.626 0-3.832-.01-.185 0-.26-.15-.23zm-19.468 3.98c-2.044 0-3.81.23-4.583 1.58-.6 1.06-.6 2.588-.6 4.286v4.81c0 1.62-.156 3.325.224 4.585.38 1.27 1.26 1.89 2.78 2.11 1.4.2 3.2.08 4.82.08h9.69c.09-.67.19-1.37.23-2.02-1.98.47-4.57.3-6.99.3h-5.56c-.62 0-1.24.07-1.57-.15-.42-.27-.53-1.05-.53-1.8-.02-2.93 0-5.59 0-8.49 0-1.05-.14-2.51.3-3.08.37-.48 1.32-.37 2.18-.37h5.19c2.41 0 4.82-.13 6.62.3-.02-.71-.05-1.33-.08-2.03h-9.99c-.7 0-1.42-.08-2.1-.08zm-26.906.08c-.138.64-.192 1.358-.303 2.028 2.15-.46 4.9-.3 7.52-.3h5.94c.9 0 1.66-.057 1.96.45.34.587.33 2.448 0 3.01-.38.663-1.74.522-2.78.522h-8.04c-1.81 0-3.35.18-4.13 1.206-.76 1.01-.82 2.66-.82 4.586 0 1.87.02 3.606.75 4.656.75 1.075 2.4 1.2 4.14 1.2h8.05c.8 0 1.89.123 2.48-.145.37-.17.53-.62.75-.9.1.35.2.707.31 1.05h3c-.5-2.45-.3-5.72-.3-8.712 0-1.47.04-3.01 0-4.51-.03-1.47-.36-2.71-1.2-3.37-.85-.68-2.12-.75-3.69-.75h-13.61zm61.557 0c-.69.035-1.36.158-1.95.376-1.79.665-2.02 2.398-2.03 4.884v4.66c0 1.566-.05 3.187.15 4.51.21 1.37.78 2.24 1.96 2.63 1.14.37 2.69.3 4.29.3 3.05 0 6.1.096 9.17 0 1.44-.045 2.69-.357 3.31-1.275.63-.937.68-2.38.68-3.985v-4.59c0-1.51.15-3.04-.07-4.51-.2-1.398-.74-2.277-1.95-2.707-1.06-.38-2.67-.3-4.28-.3h-4.58c-1.53 0-3.18-.075-4.66 0zm18.12 0c.48 2.54.31 5.704.31 8.716 0 3.018.13 6.124-.37 8.643h3.84c-.46-2.1-.37-4.76-.37-7.37v-3.91c0-1.07-.16-3 .38-3.54.37-.37 1.2-.31 1.95-.31 2.37 0 4.59.02 6.54.38.07-.88.09-1.75.15-2.63h-6.32c-.73 0-1.34-.04-1.8.22-.51.28-.77.89-1.05 1.35-.03-.54-.11-1.05-.15-1.58H271zm13.68 0c.46 2.36.3 5.48.3 8.34v4.288c0 1.466.13 2.793.75 3.61 1.21 1.562 4.72 1.122 7.45 1.122h4.29c1.36 0 2.88.186 3.61-.376.04-.02.09-.095.15-.07v2.408c0 .826.02 1.733-.22 2.33-.3.737-1.29.6-2.33.6h-5.87c-2.76 0-5.52.142-7.66-.224.11.66.2 1.29.31 1.953h10.74c1.82 0 3.67.11 5.19-.15 1.64-.27 2.46-1 2.79-2.55.32-1.52.15-3.47.15-5.18V22.3c-1.15.01-2.33-.044-3.45 0 .48 2.11.37 4.95.37 7.59v5.936c0 .686-.05 1.365-.3 1.73-.42.62-1.98.376-3.08.376h-7.52c-.52 0-1.03.034-1.426-.073-.87-.23-.75-1.32-.75-2.41V22.3h-3.46zm-31.42 1.73c.89-.084 2.04 0 3.01 0h5.87c1.17 0 2.63-.216 3.01.45.34.59.23 2.113.23 3.23v6.76c0 1.114.17 2.814-.45 3.234-.55.38-1.96.224-2.93.224h-6.31c-.96 0-2.31.148-3.01-.146-.13-.056-.23-.065-.3-.15-.44-.54-.3-2.05-.3-3.16v-6.91c0-.91-.14-2.59.3-3.154.23-.283.59-.347.91-.377zm-97.78 4.21h10.15c1.06 0 2.85-.236 3.23.374.25.38.23 1.22.23 1.955v4.36c0 .91.11 2.12-.37 2.55-.43.38-1.37.22-2.18.22h-11.05v-9.4c0-.03-.02-.08 0-.08zm39.62 1.503c.95-.07 1.9 0 2.86 0 2.89-.002 5.8 0 8.72 0v5.94c0 .82.06 1.684-.45 2.026-.55.38-1.97.22-2.93.22h-6.31c-1 0-2.43.16-2.85-.38-.26-.34-.3-1.08-.3-1.73 0-1.41-.03-2.67 0-4.13.03-1.26.16-1.88 1.28-1.95z" />
</svg>
