<?xml version="1.0" encoding="utf-8"?>
<!DOCTYPE svg PUBLIC "-//W3C//DTD SVG 1.1//EN" "http://www.w3.org/Graphics/SVG/1.1/DTD/svg11.dtd">
<svg version="1.1" id="Ebene_1" xmlns="http://www.w3.org/2000/svg" xmlns:xlink="http://www.w3.org/1999/xlink" x="0px" y="0px"
	 viewBox="0 0 595.275 841.891" enable-background="new 0 0 595.275 841.891"
	 xml:space="preserve">
<path id="Shape" fill="#131313" d="M401.713,57.134h-46.235l48.081,52.175v24.833h-99.034v-29.076h48.071L304.523,52.89V28.02
	h97.188L401.713,57.134L401.713,57.134z"/>
<path id="Shape_2_" fill="#33A9DC" d="M297.049,766.007l184.329-51.104l43.367-485.821H297.049V766.007z"/>
<g transform="translate(55.000000, 142.000000)">
	<path id="Shape_3_" fill="#FFFFFF" d="M242.046,293.087h92.28l6.372-71.415h-98.652v-69.739h0.241h174.628l-1.674,18.711
		l-17.141,192.174H242.046V293.087z"/>
	<path id="Shape_4_" fill="#EBEBEB" d="M242.464,474.193l-0.305,0.087l-77.667-20.972l-4.966-55.618h-37.738H89.524l9.768,109.494
		l142.85,39.658l0.322-0.091V474.193L242.464,474.193z"/>
	<path id="Shape_5_" fill="#FFFFFF" d="M328.397,359.866l-8.396,93.396l-77.78,20.992v72.555l142.964-39.624l1.049-11.778
		l12.132-135.54L328.397,359.866L328.397,359.866z"/>
	<path id="Shape_6_" fill="#EBEBEB" d="M242.288,151.932v43.313V221.5v0.172H74.062H73.84l-1.399-15.675l-3.178-35.353
		l-1.667-18.711L242.288,151.932L242.288,151.932z"/>
	<path id="Shape_7_" fill="#EBEBEB" d="M242.046,293.093v43.314v26.25v0.173h-76.461h-0.223l-1.396-15.674l-3.18-35.354
		l-1.667-18.711L242.046,293.093L242.046,293.093z"/>
</g>
<title>Javascript Logo Badge</title>
<path fill="#F0DB4F" d="M68.764,749.74l-50.546-567.1h556.005l-50.546,567.1l-228.073,64.107"/>
<path fill="#F7E28B" d="M296.837,764.535l183.69-50.546l43.148-485.734h-226.84"/>
<path fill="#323330" d="M296.837,367.564v-69.038h-1.233H121.775l4.931,69.038H296.837z M296.837,620.296l-78.901-20.959
	l-4.931-55.479h-69.038l8.629,109.722l144.241,39.45V620.296z"/>
<path fill="#777777" d="M395.463,367.564l-22.191,231.771l-77.668,20.959v72.734l143.008-39.45l32.055-355.054H295.604v69.038
	L395.463,367.564L395.463,367.564z"/>
<path d="M286.93,27.83h-35.092v77.101h-63.769v29.117h98.86L286.93,27.83L286.93,27.83z"/>
</svg>
