<?xml version="1.0" encoding="utf-8"?>
<svg version="1.1" id="Ebene_1" xmlns="http://www.w3.org/2000/svg" xmlns:xlink="http://www.w3.org/1999/xlink" x="0px" y="0px"
	 width="280px" height="210px" viewBox="233.093 389.681 279.308 205.588"
	 enable-background="new 233.093 389.681 279.308 205.588" xml:space="preserve">
<path fill="#A92520" d="M313.564,389.681l41.15,50.233H233.093L313.564,389.681z"/>
<path fill="#DC2F36" d="M314.02,390.528l40.982,49.515L233.547,595.27L314.02,390.528z"/>
<path fill="#DA2023" d="M233.093,439.914h239.404l39.902,56.063H233.093V439.914z"/>
<path fill="#A82620" d="M485.358,584.781l27.043-88.805H330.719L485.358,584.781z"/>
<g>
	<path fill="#FFFFFF" d="M419.188,495.973v11.5h15.094v-11.5H419.188z M462.938,495.973L441.5,536.191v15.094h25.719v8.063h15.094
		v-8.063h3.875v-15.094h-3.875v-8.063h-15.094v8.063h-9.688l20.5-40.22L462.938,495.973L462.938,495.973z M419.281,512.941v33.904
		l15.095,8.656v-42.563h-15.095V512.941z"/>
	<path fill="#FFFFFF" d="M343.866,468.661c-0.468,0-0.749,0-0.813,0c-0.313,0.047-1.093,0.172-1.015,1.092l-0.048,5.587
		c-0.172,1.218,0.606,1.092,1.063,1.092l9.863-0.047c0.516-0.047,0.922,0.079,1.045-0.999l0.047-6.646
		c-2.965-0.031-8.146-0.095-10.146-0.095 M317.82,467.599l-11.782,0.097v8.037l11.644,0.047c1.356,0,1.173-1.438,1.142-1.576v-5.026
		c0-0.342,0.267-1.526-1.017-1.56 M397.741,463.635c-0.482,0.047-0.844-0.028-0.902,0.952l-0.033,1.42l-0.029,3.996l0.029,4.01
		l0.033,1.421c0.063,0.983,0.42,0.904,0.902,0.938h10.02c0.484-0.047,0.844,0.031,0.905-0.938l0.03-1.421l0.047-4.01l-0.047-3.996
		l-0.03-1.421c-0.063-0.981-0.421-0.905-0.905-0.952L397.741,463.635L397.741,463.635z M396.493,461.793h12.531
		c0.313,0,2.81,0.484,2.81,3.012l-0.03,5.197l0.03,5.196c0,2.525-2.495,3.013-2.81,3.013h-12.531c-0.313,0-2.811-0.484-2.811-3.013
		l0.029-5.196l-0.029-5.197C393.684,462.261,396.18,461.793,396.493,461.793 M376.282,461.793l0.047,1.966
		c-4.51-0.106-11.721-0.078-12.204-0.046c-0.482,0.046-0.844-0.031-0.904,0.952l-0.031,1.42l-0.031,3.995l0.031,4.011l0.031,1.42
		c0.063,0.971,0.422,0.905,0.904,0.952s7.694,0.063,12.204-0.032l-0.047,1.969l-13.421-0.078c-0.313,0-2.811-0.484-2.811-3.015
		v-5.213v-5.194c0-2.528,2.497-3.015,2.811-3.015L376.282,461.793L376.282,461.793z M354.244,461.747
		c0.313,0,2.812,0.484,2.812,3.012l-0.047,12.33l0.357,1.14l-2.889,0.125l-0.297-0.969c-0.403,1.188-1.265,0.844-1.669,0.921
		c-0.405,0.096-9.505,0.096-10.034,0c-0.53-0.079-3.2,0.221-3.513-2.979l-0.046-4.76c0.265-3.062,2.061-3.402,3.32-3.449
		c1.268-0.047,10.191-0.109,10.629-0.047c0.482-0.063,1.188,0,1.063-1.108l-0.031-1.419c-0.063-0.968-0.421-0.905-0.904-0.952
		c-0.482-0.031-9.084,0.047-13.595,0l0.047-1.966L354.244,461.747L354.244,461.747z M417.139,461.747l0.125,1.452
		c0.143-0.999,1.109-1.358,1.67-1.358h6.932l-0.047,2.265l-7.443,0.048c-0.529,0.046-0.873,0.077-0.922,0.999l0.221,12.063
		l0.219,1.17l-3.824,0.047l0.393-1.698v-14.904L417.139,461.747z M445.483,461.668l0.094,19.805
		c-0.094,2.843-2.496,3.105-3.543,3.105l-14.324-0.047l0.047-1.702c4.635,0,13.498,0.047,13.873-0.047
		c0.404-0.094,0.875,0.047,0.969-1.188l-0.047-3.715c-0.359,0.438-0.438,0.406-0.875,0.438h-11.08c-0.531,0-3.59-0.048-3.23-3.841
		v-10.551l-0.355-2.138l3.321-0.047l0.05,13.563c-0.05,1.313,0.436,1.267,1.186,1.345c0.75,0.093,9.457-0.125,9.896-0.078
		c0.438,0.046,1.141,0.046,1.141-1.53l-0.174-11.721l-0.232-1.576L445.483,461.668z M383.305,457.922l0.094,3.98l8.193-0.047
		l0.047,1.573l-8.193,0.047l0.063,12.005c0.063,1.245,1.402,1.074,1.573,1.092l6.991-0.031l0.188,1.841h-8.102
		c-3.807,0.125-3.668-2.926-3.637-3.184v-11.58l-2.668-0.031l0.047-1.748l2.59-0.047l0.078-3.153L383.305,457.922L383.305,457.922z
		 M317.913,457.922l-11.781,0.079v8.053l11.643,0.046c1.357,0,1.171-1.436,1.142-1.573V459.5
		C318.912,459.14,319.177,457.969,317.913,457.922 M318.648,455.957c3.543,0.172,3.714,2.793,3.775,3.184v6.137
		c0,0,0.029,1.698-2.278,1.794c2.186,0.313,2.105,1.575,2.186,1.874c0.096,0.312,0,6.521,0,6.521s0.484,2.437-3.025,2.917
		l-17.214,0.144l0.391-1.72V457.66l-0.267-1.655L318.648,455.957L318.648,455.957z M282.97,455.957l17.293,0.063l-0.063,2.516
		l-2.745-0.53l-10.565,0.063v8.271h10.099l2.573-0.281l0.063,2.515l-2.043-0.296l-10.689,0.063l-0.063,8.227l13.438-0.063
		l-0.125,2.044l-17.229-0.11l0.23-1.045v-20.115L282.97,455.957L282.97,455.957z M250.915,455.957h4.024l-0.125,2.045l4.667,18.01
		l4.963-19.99l4.495-0.063l5.262,19.993l4.385-17.542l0.107-2.45h3.092l-1.171,2.793L275.59,478.4l-4.262-0.063l-5.308-20.054
		l-5.088,20.226l-4.387-0.171l-5.54-20.335l-0.765-1.979L250.915,455.957L250.915,455.957z M463.18,455.786v0.952h0.576l0.703-0.047
		h0.219l0.078-0.281l-0.109-0.313h-0.297h-0.563L463.18,455.786z M462.448,455.161h1.576c0.404,0,0.688,0.031,0.873,0.094
		c0.172,0.078,0.328,0.188,0.438,0.359s0,0.375,0,0.593c0,0.281-0.079,0.515-0.233,0.703c0,0.171-0.392,0.295-0.701,0.342
		l0.375,0.313l0.42,0.605l0.455,0.734h-0.86l-0.528-0.843l-0.42-0.53h-0.234l-0.406-0.047v1.574h-0.73L462.448,455.161
		L462.448,455.161z M464.116,453.522c-1.95,0-3.543,1.573-3.543,3.524c0,1.95,1.593,3.527,3.543,3.527
		c1.951,0,3.525-1.577,3.525-3.527S466.069,453.522,464.116,453.522 M464.116,452.415c2.561,0,4.648,2.076,4.648,4.635
		c0,2.562-2.09,4.636-4.648,4.636c-2.277,0-4.186-1.64-4.57-3.809l-127.834-0.047c-0.173,0-1.516,0-1.576,1.093l0.093,3.137
		l8.194,0.05l-0.048,1.574l-8.192-0.047l-0.094,13.25l0.438,1.483l-3.729,0.093l0.391-1.311l-0.078-13.375l-2.592-0.046
		l-0.047-1.748l2.67-0.05v-2.697c-0.142,0.094-0.172-3.312,3.636-3.187h128.786c0.469-2.076,2.324-3.621,4.525-3.621"/>
</g>
</svg>
