<svg xmlns="http://www.w3.org/2000/svg" xmlns:xlink="http://www.w3.org/1999/xlink" viewBox="0 0 465 465">
  <defs>
    <linearGradient id="d">
      <stop offset="0" stop-opacity=".427"/>
      <stop offset="1" stop-opacity="0"/>
    </linearGradient>
    <linearGradient id="c">
      <stop offset="0" stop-color="#fff"/>
      <stop offset=".782" stop-color="#424242"/>
      <stop offset=".854" stop-color="silver"/>
      <stop offset=".942" stop-color="#cdcdcd"/>
      <stop offset="1" stop-color="#797979"/>
    </linearGradient>
    <linearGradient id="b">
      <stop offset="0" stop-color="#d6d6d6"/>
      <stop offset="1" stop-color="#717171" />
    </linearGradient>
    <linearGradient id="a">
      <stop offset="0" stop-opacity=".196"/>
      <stop offset=".217" stop-opacity=".392"/>
      <stop offset=".729" stop-color="#fff" stop-opacity=".392"/>
      <stop offset="1" stop-color="#fff" stop-opacity=".196"/>
    </linearGradient>
    <linearGradient id="e" x1="-1761.254" x2="-1109.384" y1="641.497" y2="-6.431" gradientTransform="matrix(0,-1,1.0060852,0,8.6634072,-1101.6572)" gradientUnits="userSpaceOnUse" xlink:href="#a"/>
    <radialGradient id="g" cx="709.286" cy="216.648" r="117.494" xlink:href="#b" fx="709.286" fy="216.648" gradientTransform="matrix(0.63950952,0,0,0.63950952,-221.09433,95.247739)" gradientUnits="userSpaceOnUse"/>
    <radialGradient id="f" cx="709.286" cy="209.337" r="118.319" xlink:href="#c" fx="709.286" fy="209.337" gradientTransform="matrix(0.80476135,0,0,0.79594932,-338.30507,61.355374)" gradientUnits="userSpaceOnUse"/>
    <radialGradient id="h" cx="709.286" cy="209.337" r="118.319" xlink:href="#c" gradientUnits="userSpaceOnUse" gradientTransform="matrix(0.13759816,0,0,0.13609148,134.90416,204.31189)" fx="709.286" fy="209.337"/>
    <linearGradient id="i" x1="321.25" x2="321.25" y1="247.157" y2="448.157" xlink:href="#d" gradientUnits="userSpaceOnUse" gradientTransform="translate(7.2088768e-6,7.2088768e-6)"/>
    <linearGradient id="j" x1="163.527" x2="163.527" y1="255.659" y2="193.515" xlink:href="#a" gradientUnits="userSpaceOnUse" gradientTransform="translate(7.2088768e-6,-5.2661786e-5)"/>
    <linearGradient id="k" x1="322.25" x2="322.25" y1="261.491" y2="211.287" xlink:href="#d" gradientUnits="userSpaceOnUse" gradientTransform="translate(7.2088768e-6,-5.2661786e-5)"/>
  </defs>
  <path class="background-neutral" fill="#eee" d="M.5 452.525c0 6.635 5.375 11.975 12.05 11.975h439.905c6.674 0 12.047-5.34 12.047-11.975V12.475C464.5 5.84 459.127.5 452.452.5H12.55C5.874.5.5 5.84.5 12.474z"/>
  <path fill="url(#e)" d="M12.072 0C5.384 0 0 5.352 0 12v441c0 6.648 5.384 12 12.072 12h440.856c6.688 0 12.072-5.352 12.072-12V12c0-6.648-5.384-12-12.072-12zm24.21 21.006h392.44c6.758 0 12.245 5.49 12.245 12.248v397.08c0 6.76-5.487 12.247-12.246 12.247H36.28c-6.758 0-12.247-5.49-12.247-12.24V33.26c0-6.76 5.49-12.25 12.248-12.25zm0 5.12c-5.15 0-9.25 4.1-9.25 9.25V428.21c0 5.15 4.1 9.25 9.25 9.25h392.44c5.148 0 9.245-4.1 9.245-9.25V35.376c0-5.15-4.097-9.248-9.246-9.248zM136.35 238.41c21.597 122.835 176.372 98.157 192.228 3.117.095.454.316 2.278.48 4.752-.052 37.09-21.342 76.87-54.78 92.91-13.244 5.5-27.44 8.34-41.778 8.37-14.286-.02-28.43-2.83-41.637-8.28-33.524-16.026-54.88-55.866-54.918-93.02.028-2.63.163-5.255.405-7.87z"/>
  <path fill="url(#f)" d="M232.5 137.413a96.383 96.383 0 0 0-96.382 96.384 96.383 96.383 0 0 0 96.382 96.38 96.383 96.383 0 0 0 96.384-96.38 96.383 96.383 0 0 0-96.384-96.384zm0 21.234a75.15 75.15 0 0 1 75.15 75.15 75.15 75.15 0 0 1-75.15 75.148 75.15 75.15 0 0 1-75.148-75.148 75.15 75.15 0 0 1 75.148-75.15z"/>
  <path fill="url(#g)" d="M157.362 233.796c0-41.498 33.64-75.138 75.14-75.138 41.496 0 75.137 33.64 75.137 75.138 0 41.498-33.65 75.14-75.14 75.14-41.5 0-75.14-33.642-75.14-75.14z"/>
  <path fill-opacity=".274" d="M36.28 21.006c-6.758 0-12.247 5.49-12.247 12.248V428.21c0 6.76 5.49 12.25 12.248 12.25h392.44c6.76 0 12.25-5.49 12.25-12.25V33.255c0-6.76-5.48-12.248-12.24-12.248H36.28zm0 3h392.44c5.15 0 9.247 4.1 9.247 9.248V428.21c0 5.15-4.097 9.25-9.246 9.25H36.28c-5.148 0-9.247-4.1-9.247-9.25V33.255c0-5.15 4.1-9.248 9.248-9.248zM136.35 238.41c-.242 2.617-.377 5.242-.405 7.87.027 26.287 10.733 53.906 28.86 73.495l8.02-13.056c-21.01-15.91-35.117-39.98-36.475-68.31zm192.228 3.117c-3.645 26.075-17.142 49.264-36.492 64.922.014.06.025.12.04.18l8.06 13.12c18.127-19.59 28.835-47.21 28.87-73.48-.162-2.48-.383-4.3-.478-4.76z"/>
  <path fill="url(#h)" d="M232.5 217.316c-9.1 0-16.48 7.38-16.48 16.48 0 9.1 7.38 16.48 16.48 16.48 9.102 0 16.48-7.38 16.48-16.48 0-9.102-7.378-16.48-16.48-16.48z"/>
  <path fill="url(#i)" d="M232.5 158.658c-39.077 0-71.176 29.834-74.79 67.965-.013-.156-.036-.31-.05-.465-.184 2.145-.3 4.308-.3 6.5 0 .19.014.378.015.57 0 .19-.014.378-.014.57 0 2.19.12 4.354.3 6.5.02-.157.04-.31.05-.466 1.91 20.066 11.7 37.828 26.25 50.16-.33.09-.66.18-1 .244-8.06-1.25-8.26 8.728-10.07 16.4l-27.99 45.577-1.13 31.47 2.346 53h172.81l2.34-53-1.13-31.47-27.993-45.576c-1.815-7.673-2.014-17.652-10.075-16.4-.345-.064-.673-.157-1.003-.247 14.54-12.334 24.34-30.1 26.24-50.17.01.16.04.317.05.477.185-2.145.298-4.308.298-6.5 0-.19-.014-.38-.015-.57 0-.19.014-.378.014-.57 0-2.19-.116-4.354-.3-6.5-.014.16-.04.318-.053.478-3.61-38.137-35.71-67.977-74.79-67.977zm0 13c36.863 0 67.51 26.55 73.896 61.57-3.805 20.862-16.224 38.717-33.435 49.745-1.91-3.583-3.16-8.302-3.9-13.883l-25.86-10.254v-15.598c0-5.876-4.73-10.607-10.6-10.607-.03 0-.06.01-.09.01h-.09c-5.87 0-10.61 4.73-10.61 10.61v15.6l-25.86 10.25c-.73 5.58-1.98 10.3-3.9 13.89-17.21-11.03-29.63-28.88-33.43-49.743 6.39-35.02 37.03-61.57 73.9-61.57z"/>
  <path fill-opacity=".292" d="M177.936 285.057c.06.188.12.37.18.554 2.712 2.82 5.64 5.42 8.757 7.78l.055-.12c-2.993-2.48-5.992-5.22-8.992-8.21zm100.56 8.11l.004.005c2.154-1.755 1.76-1.416-.004-.006z"/>
  <rect class="switch-neutral" fill="Orange" stroke="Orange"  width="177" height="44.5" x="143.75" y="210.25" stroke-width="2" ry="2.337" stroke-linecap="round" stroke-linejoin="round"/>
  <rect width="177" height="44.5" x="143.75" y="210.25" fill="url(#j)" stroke="url(#k)" stroke-width="2" ry="2.337" stroke-linecap="round" stroke-linejoin="round"/>
</svg>
