<?xml version="1.0" encoding="UTF-8" standalone="no"?>
<svg
   xmlns:dc="http://purl.org/dc/elements/1.1/"
   xmlns:cc="http://creativecommons.org/ns#"
   xmlns:rdf="http://www.w3.org/1999/02/22-rdf-syntax-ns#"
   xmlns:svg="http://www.w3.org/2000/svg"
   xmlns="http://www.w3.org/2000/svg"
   xmlns:xlink="http://www.w3.org/1999/xlink"
   xmlns:sodipodi="http://sodipodi.sourceforge.net/DTD/sodipodi-0.dtd"
   xmlns:inkscape="http://www.inkscape.org/namespaces/inkscape"
   sodipodi:docname="VMI3230_Solekuehlung.svg"
   inkscape:version="1.0 (4035a4fb49, 2020-05-01)"
   version="1.1"
   id="svg8702"
   viewBox="0 0 744.09449 1052.3622"
   height="240"
   width="160">
  <defs
     id="defs8704">
    <linearGradient
       id="linearGradient4333"
       inkscape:collect="always">
      <stop
         id="stop4335"
         offset="0"
         style="stop-color:#0000ff;stop-opacity:1" />
      <stop
         id="stop4337"
         offset="1"
         style="stop-color:#ff0000;stop-opacity:1" />
    </linearGradient>
    <linearGradient
       gradientTransform="matrix(1.0979936,0,0,0.99700399,330.42394,6.521191)"
       gradientUnits="userSpaceOnUse"
       y2="836.21246"
       x2="-202.78333"
       y1="836.21246"
       x1="250.98448"
       id="linearGradient4339"
       xlink:href="#linearGradient4333"
       inkscape:collect="always" />
  </defs>
  <sodipodi:namedview
     inkscape:document-rotation="0"
     inkscape:snap-global="false"
     inkscape:guide-bbox="true"
     showguides="true"
     inkscape:window-maximized="1"
     inkscape:window-y="-8"
     inkscape:window-x="-8"
     inkscape:window-height="1018"
     inkscape:window-width="1920"
     showgrid="false"
     inkscape:current-layer="layer1"
     inkscape:document-units="px"
     inkscape:cy="197.60025"
     inkscape:cx="26.346104"
     inkscape:zoom="2.8284271"
     inkscape:pageshadow="2"
     inkscape:pageopacity="0.0"
     borderopacity="1.0"
     bordercolor="#666666"
     pagecolor="#ffffff"
     id="base">
    <sodipodi:guide
       id="guide4347"
       orientation="0,1"
       position="-42.497075,494.53803" />
  </sodipodi:namedview>
  <metadata
     id="metadata8707">
    <rdf:RDF>
      <cc:Work
         rdf:about="">
        <dc:format>image/svg+xml</dc:format>
        <dc:type
           rdf:resource="http://purl.org/dc/dcmitype/StillImage" />
        <dc:title />
      </cc:Work>
    </rdf:RDF>
  </metadata>
  <g
     id="layer1"
     inkscape:groupmode="layer"
     inkscape:label="Ebene 1">
    <g
       transform="matrix(1.9186684,0,0,-1.8821067,459.7455,10.089073)"
       id="g5556" />
    <g
       transform="matrix(1.25,0,0,-1.25,245.71435,175.79997)"
       id="g7744" />
    <g
       transform="matrix(1.9186684,0,0,-1.8821067,570.39604,308.8549)"
       id="g7772" />
    <g
       transform="matrix(1.9186684,0,0,-1.8821067,581.27351,310.18874)"
       id="g7776" />
    <g
       transform="matrix(1.9186684,0,0,-1.8821067,598.6568,308.8549)"
       id="g7780" />
    <g
       transform="matrix(1.9186684,0,0,-1.8821067,609.53396,310.18874)"
       id="g7784" />
    <g
       transform="matrix(1.9186684,0,0,-1.8821067,581.80706,314.61696)"
       id="g7796" />
    <g
       transform="matrix(1.9186684,0,0,-1.8821067,588.33345,323.3665)"
       id="g7800" />
    <g
       transform="matrix(1.9186684,0,0,-1.8821067,581.27351,329.12838)"
       id="g7804" />
    <g
       transform="matrix(1.9186684,0,0,-1.8821067,570.39604,327.79453)"
       id="g7808" />
    <g
       transform="matrix(1.9186684,0,0,-1.8821067,609.53396,329.12838)"
       id="g7812" />
    <g
       transform="matrix(1.9186684,0,0,-1.8821067,598.6568,327.79453)"
       id="g7816" />
    <g
       transform="matrix(1.9186684,0,0,-1.8821067,562.57386,319.52532)"
       id="g7844" />
    <g
       transform="matrix(1.9186684,0,0,-1.8821067,580.37297,323.3665)"
       id="g7848" />
    <g
       transform="matrix(1.9186684,0,0,-1.8821067,572.84887,308.8549)"
       id="g7876" />
    <g
       transform="matrix(1.9186684,0,0,-1.8821067,572.84887,308.8549)"
       id="g7880" />
    <g
       transform="matrix(1.9186684,0,0,-1.8821067,615.23977,308.8549)"
       id="g7884" />
    <g
       transform="matrix(1.9186684,0,0,-1.8821067,615.23977,308.8549)"
       id="g7888" />
    <g
       transform="matrix(1.9186684,0,0,-1.8821067,581.27351,310.18874)"
       id="g7892" />
    <g
       transform="matrix(1.9186684,0,0,-1.8821067,609.53396,310.18874)"
       id="g7896" />
    <g
       transform="matrix(1.9186684,0,0,-1.8821067,585.07033,314.18784)"
       id="g7968" />
    <g
       transform="matrix(1.9186684,0,0,-1.8821067,582.62272,314.61696)"
       id="g7972" />
    <g
       transform="matrix(1.9186684,0,0,-1.8821067,580.17542,310.18874)"
       id="g7976" />
    <g
       transform="matrix(1.9186684,0,0,-1.8821067,582.62272,308.8549)"
       id="g7980" />
    <g
       transform="matrix(1.9186684,0,0,-1.8821067,585.07033,309.28384)"
       id="g7984" />
    <g
       transform="matrix(1.9186684,0,0,-1.8821067,585.07033,309.28384)"
       id="g7988" />
    <g
       transform="matrix(1.9186684,0,0,-1.8821067,587.51763,314.61696)"
       id="g7992" />
    <g
       transform="matrix(1.9186684,0,0,-1.8821067,587.51763,314.61696)"
       id="g7996" />
    <g
       transform="matrix(1.9186684,0,0,-1.8821067,587.51763,308.8549)"
       id="g8000" />
    <g
       transform="matrix(1.9186684,0,0,-1.8821067,589.96508,314.18784)"
       id="g8004" />
    <g
       transform="matrix(1.9186684,0,0,-1.8821067,589.96508,309.28384)"
       id="g8008" />
    <g
       transform="matrix(1.9186684,0,0,-1.8821067,589.96508,309.28384)"
       id="g8012" />
    <g
       transform="matrix(1.9186684,0,0,-1.8821067,580.17542,314.18784)"
       id="g8016" />
    <g
       transform="matrix(1.9186684,0,0,-1.8821067,582.62272,314.61696)"
       id="g8020" />
    <g
       transform="matrix(1.9186684,0,0,-1.8821067,589.96508,314.61696)"
       id="g8024" />
    <g
       transform="matrix(1.9186684,0,0,-1.8821067,589.96508,314.61696)"
       id="g8028" />
    <g
       transform="matrix(1.9186684,0,0,-1.8821067,589.96508,308.8549)"
       id="g8032" />
    <g
       transform="matrix(1.9186684,0,0,-1.8821067,572.84887,329.12838)"
       id="g8036" />
    <g
       transform="matrix(1.9186684,0,0,-1.8821067,572.84887,329.12838)"
       id="g8040" />
    <g
       transform="matrix(1.9186684,0,0,-1.8821067,615.23977,329.12838)"
       id="g8044" />
    <g
       transform="matrix(1.9186684,0,0,-1.8821067,615.23977,329.12838)"
       id="g8048" />
    <g
       transform="matrix(1.9186684,0,0,-1.8821067,581.27351,327.79453)"
       id="g8052" />
    <g
       transform="matrix(1.9186684,0,0,-1.8821067,609.53396,327.79453)"
       id="g8056" />
    <g
       transform="matrix(1.9186684,0,0,-1.8821067,562.57386,328.75761)"
       id="g8084" />
    <g
       transform="matrix(1.9186684,0,0,-1.8821067,562.57386,323.73729)"
       id="g8088" />
    <g
       transform="matrix(1.9186684,0,0,-1.8821067,561.42911,323.3665)"
       id="g8092" />
    <g
       transform="matrix(1.9186684,0,0,-1.8821067,585.07033,328.69946)"
       id="g8176" />
    <g
       transform="matrix(1.9186684,0,0,-1.8821067,582.62272,329.12838)"
       id="g8180" />
    <g
       transform="matrix(1.9186684,0,0,-1.8821067,580.17542,327.79453)"
       id="g8184" />
    <g
       transform="matrix(1.9186684,0,0,-1.8821067,582.62272,323.3665)"
       id="g8188" />
    <g
       transform="matrix(1.9186684,0,0,-1.8821067,585.07033,323.79524)"
       id="g8192" />
    <g
       transform="matrix(1.9186684,0,0,-1.8821067,585.07033,328.69946)"
       id="g8196" />
    <g
       transform="matrix(1.9186684,0,0,-1.8821067,587.51763,323.3665)"
       id="g8200" />
    <g
       transform="matrix(1.9186684,0,0,-1.8821067,587.51763,323.3665)"
       id="g8204" />
    <g
       transform="matrix(1.9186684,0,0,-1.8821067,587.51763,329.12838)"
       id="g8208" />
    <g
       transform="matrix(1.9186684,0,0,-1.8821067,589.96508,328.69946)"
       id="g8212" />
    <g
       transform="matrix(1.9186684,0,0,-1.8821067,589.96508,323.79524)"
       id="g8216" />
    <g
       transform="matrix(1.9186684,0,0,-1.8821067,589.96508,328.69946)"
       id="g8220" />
    <g
       transform="matrix(1.9186684,0,0,-1.8821067,580.17542,323.79524)"
       id="g8224" />
    <g
       transform="matrix(1.9186684,0,0,-1.8821067,582.62272,323.3665)"
       id="g8228" />
    <g
       transform="matrix(1.9186684,0,0,-1.8821067,589.96508,323.3665)"
       id="g8232" />
    <g
       transform="matrix(1.9186684,0,0,-1.8821067,589.96508,323.3665)"
       id="g8236" />
    <g
       transform="matrix(1.9186684,0,0,-1.8821067,589.96508,329.12838)"
       id="g8240" />
    <g
       transform="matrix(1.9186684,0,0,-1.8821067,581.80706,319.52532)"
       id="g8244" />
    <path
       transform="matrix(9.3011812,0,0,9.3011805,0,-171.40745)"
       inkscape:connector-curvature="0"
       id="path4314"
       d=""
       style="color:#000000;clip-rule:nonzero;display:inline;overflow:visible;visibility:visible;opacity:0.98000004;isolation:auto;mix-blend-mode:normal;color-interpolation:sRGB;color-interpolation-filters:linearRGB;solid-color:#000000;solid-opacity:1;fill:#dcdcdc;fill-opacity:1;fill-rule:evenodd;stroke:none;stroke-width:0.1;stroke-linecap:round;stroke-linejoin:miter;stroke-miterlimit:4;stroke-dasharray:none;stroke-dashoffset:3.99999952;stroke-opacity:1;color-rendering:auto;image-rendering:auto;shape-rendering:auto;text-rendering:auto;enable-background:accumulate" />
    <path
       transform="matrix(9.3011812,0,0,9.3011805,0,-171.40745)"
       inkscape:connector-curvature="0"
       id="path4328"
       d=""
       style="color:#000000;clip-rule:nonzero;display:inline;overflow:visible;visibility:visible;opacity:0.98000004;isolation:auto;mix-blend-mode:normal;color-interpolation:sRGB;color-interpolation-filters:linearRGB;solid-color:#000000;solid-opacity:1;fill:#dcdcdc;fill-opacity:1;fill-rule:evenodd;stroke:none;stroke-width:0.1;stroke-linecap:round;stroke-linejoin:miter;stroke-miterlimit:4;stroke-dasharray:none;stroke-dashoffset:3.99999952;stroke-opacity:1;color-rendering:auto;image-rendering:auto;shape-rendering:auto;text-rendering:auto;enable-background:accumulate" />
    <path
       sodipodi:nodetypes="ccccccc"
       inkscape:connector-curvature="0"
       id="path4297"
       d="m 824.76564,943.15927 -295.45607,0 0.60181,-83.06255 -174.47209,-115.77686 -172.78172,122.05454 0,76.78487 -184.0040765,0"
       style="fill:none;fill-opacity:0.98039216;fill-rule:evenodd;stroke:url(#linearGradient4339);stroke-width:21.08112717;stroke-linecap:butt;stroke-linejoin:miter;stroke-miterlimit:4;stroke-dasharray:none;stroke-opacity:0.96078431" />
    <path
       sodipodi:nodetypes="cccccc"
       inkscape:connector-curvature="0"
       id="path4297-3"
       d="m 180.29233,169.7841 -0.60182,543.10113 174.47209,115.77684 172.78173,-122.05453 0,-206.08367 0,-331.83268"
       style="fill:none;fill-opacity:0.98039216;fill-rule:evenodd;stroke:#0024bc;stroke-width:13.15452671;stroke-linecap:butt;stroke-linejoin:miter;stroke-miterlimit:4;stroke-dasharray:none;stroke-opacity:0.96078431" />
    <path
       sodipodi:nodetypes="cc"
       inkscape:connector-curvature="0"
       id="path4329"
       d="m 527.09016,279.75284 -349.05333,0"
       style="fill:none;fill-rule:evenodd;stroke:#0729bc;stroke-width:13.15452671;stroke-linecap:butt;stroke-linejoin:miter;stroke-miterlimit:4;stroke-dasharray:none;stroke-opacity:1" />
    <rect
       ry="8.1925087"
       rx="15.502745"
       y="655.71893"
       x="151.55693"
       height="242.62967"
       width="409.23495"
       id="rect4295"
       style="color:#000000;clip-rule:nonzero;display:inline;overflow:visible;visibility:visible;opacity:0.98000004;isolation:auto;mix-blend-mode:normal;color-interpolation:sRGB;color-interpolation-filters:linearRGB;solid-color:#000000;solid-opacity:1;fill:#bbbbbb;fill-opacity:0.45535715;fill-rule:evenodd;stroke:#000000;stroke-width:3.50787377;stroke-linecap:round;stroke-linejoin:round;stroke-miterlimit:4;stroke-dasharray:none;stroke-dashoffset:0;stroke-opacity:1;color-rendering:auto;image-rendering:auto;shape-rendering:auto;text-rendering:auto;enable-background:accumulate" />
    <text
       transform="scale(1.0082964,0.99177186)"
       id="text4341"
       y="126.66906"
       x="88.938957"
       style="font-style:normal;font-weight:normal;line-height:0%;font-family:sans-serif;letter-spacing:0px;word-spacing:0px;fill:#000000;fill-opacity:1;stroke:none;stroke-width:1px;stroke-linecap:butt;stroke-linejoin:miter;stroke-opacity:1"
       xml:space="preserve"><tspan
         style="font-size:91.4418px;line-height:1.25"
         y="126.66906"
         x="88.938957"
         id="tspan4343"
         sodipodi:role="line">Solekühlung</tspan></text>
    <path
       sodipodi:nodetypes="cccc"
       inkscape:connector-curvature="0"
       id="path4345"
       d="m 146.44621,562.90047 33.72352,32.89908 32.50445,-32.82356 z"
       style="fill:#0023bc;fill-opacity:0.96078431;fill-rule:evenodd;stroke:none;stroke-width:4.3848424px;stroke-linecap:butt;stroke-linejoin:miter;stroke-opacity:1" />
    <path
       sodipodi:nodetypes="cccc"
       inkscape:connector-curvature="0"
       id="path4345-3"
       d="m 493.13397,595.7392 33.72354,-32.89908 32.50445,32.82357 z"
       style="fill:#0023bc;fill-opacity:0.96078431;fill-rule:evenodd;stroke:none;stroke-width:4.3848424px;stroke-linecap:butt;stroke-linejoin:miter;stroke-opacity:1" />
    <path
       inkscape:transform-center-y="4.1105806"
       inkscape:transform-center-x="-0.82211601"
       style="fill:#0000ff;fill-opacity:0.96078432;fill-rule:evenodd;stroke:none;stroke-width:4.38484px;stroke-linecap:butt;stroke-linejoin:miter;stroke-opacity:1"
       d="M 574.57513,976.27654 607.4742,942.55307 574.65066,910.04862 Z"
       id="path4345-1"
       inkscape:connector-curvature="0"
       sodipodi:nodetypes="cccc" />
    <path
       style="fill:#ff0000;fill-opacity:0.96078432;fill-rule:evenodd;stroke:none;stroke-width:4.38484px;stroke-linecap:butt;stroke-linejoin:miter;stroke-opacity:1"
       d="M 122.55238,976.62721 155.45145,942.90364 122.6279,910.39919 Z"
       id="path4345-5"
       inkscape:connector-curvature="0"
       sodipodi:nodetypes="cccc" />
  </g>
</svg>
