<?xml version="1.0" encoding="UTF-8" standalone="no"?>
<!-- Created with Inkscape (http://www.inkscape.org/) -->

<svg
   xmlns:dc="http://purl.org/dc/elements/1.1/"
   xmlns:cc="http://creativecommons.org/ns#"
   xmlns:rdf="http://www.w3.org/1999/02/22-rdf-syntax-ns#"
   xmlns:svg="http://www.w3.org/2000/svg"
   xmlns="http://www.w3.org/2000/svg"
   xmlns:sodipodi="http://sodipodi.sourceforge.net/DTD/sodipodi-0.dtd"
   xmlns:inkscape="http://www.inkscape.org/namespaces/inkscape"
   width="160"
   height="240"
   viewBox="0 0 744.09449 1052.3622"
   id="svg8702"
   version="1.1"
   inkscape:version="0.91 r13725"
   sodipodi:docname="VMI4110_Solekuehlung_Kneter.svg">
  <defs
     id="defs8704" />
  <sodipodi:namedview
     id="base"
     pagecolor="#ffffff"
     bordercolor="#666666"
     borderopacity="1.0"
     inkscape:pageopacity="0.0"
     inkscape:pageshadow="2"
     inkscape:zoom="2"
     inkscape:cx="-182"
     inkscape:cy="68.261691"
     inkscape:document-units="px"
     inkscape:current-layer="layer1"
     showgrid="false"
     inkscape:window-width="1920"
     inkscape:window-height="1017"
     inkscape:window-x="-8"
     inkscape:window-y="-8"
     inkscape:window-maximized="1"
     showguides="true"
     inkscape:guide-bbox="true"
     inkscape:snap-global="false">
    <sodipodi:guide
       position="-42.497075,494.53803"
       orientation="0,1"
       id="guide4347" />
  </sodipodi:namedview>
  <metadata
     id="metadata8707">
    <rdf:RDF>
      <cc:Work
         rdf:about="">
        <dc:format>image/svg+xml</dc:format>
        <dc:type
           rdf:resource="http://purl.org/dc/dcmitype/StillImage" />
        <dc:title />
      </cc:Work>
    </rdf:RDF>
  </metadata>
  <g
     inkscape:label="Ebene 1"
     inkscape:groupmode="layer"
     id="layer1">
    <g
       id="g5556"
       transform="matrix(1.9186684,0,0,-1.8821067,459.7455,10.089073)" />
    <g
       id="g7744"
       transform="matrix(1.25,0,0,-1.25,245.71435,175.79997)" />
    <g
       id="g7772"
       transform="matrix(1.9186684,0,0,-1.8821067,570.39604,308.8549)" />
    <g
       id="g7776"
       transform="matrix(1.9186684,0,0,-1.8821067,581.27351,310.18874)" />
    <g
       id="g7780"
       transform="matrix(1.9186684,0,0,-1.8821067,598.6568,308.8549)" />
    <g
       id="g7784"
       transform="matrix(1.9186684,0,0,-1.8821067,609.53396,310.18874)" />
    <g
       id="g7796"
       transform="matrix(1.9186684,0,0,-1.8821067,581.80706,314.61696)" />
    <g
       id="g7800"
       transform="matrix(1.9186684,0,0,-1.8821067,588.33345,323.3665)" />
    <g
       id="g7804"
       transform="matrix(1.9186684,0,0,-1.8821067,581.27351,329.12838)" />
    <g
       id="g7808"
       transform="matrix(1.9186684,0,0,-1.8821067,570.39604,327.79453)" />
    <g
       id="g7812"
       transform="matrix(1.9186684,0,0,-1.8821067,609.53396,329.12838)" />
    <g
       id="g7816"
       transform="matrix(1.9186684,0,0,-1.8821067,598.6568,327.79453)" />
    <g
       id="g7844"
       transform="matrix(1.9186684,0,0,-1.8821067,562.57386,319.52532)" />
    <g
       id="g7848"
       transform="matrix(1.9186684,0,0,-1.8821067,580.37297,323.3665)" />
    <g
       id="g7876"
       transform="matrix(1.9186684,0,0,-1.8821067,572.84887,308.8549)" />
    <g
       id="g7880"
       transform="matrix(1.9186684,0,0,-1.8821067,572.84887,308.8549)" />
    <g
       id="g7884"
       transform="matrix(1.9186684,0,0,-1.8821067,615.23977,308.8549)" />
    <g
       id="g7888"
       transform="matrix(1.9186684,0,0,-1.8821067,615.23977,308.8549)" />
    <g
       id="g7892"
       transform="matrix(1.9186684,0,0,-1.8821067,581.27351,310.18874)" />
    <g
       id="g7896"
       transform="matrix(1.9186684,0,0,-1.8821067,609.53396,310.18874)" />
    <g
       id="g7968"
       transform="matrix(1.9186684,0,0,-1.8821067,585.07033,314.18784)" />
    <g
       id="g7972"
       transform="matrix(1.9186684,0,0,-1.8821067,582.62272,314.61696)" />
    <g
       id="g7976"
       transform="matrix(1.9186684,0,0,-1.8821067,580.17542,310.18874)" />
    <g
       id="g7980"
       transform="matrix(1.9186684,0,0,-1.8821067,582.62272,308.8549)" />
    <g
       id="g7984"
       transform="matrix(1.9186684,0,0,-1.8821067,585.07033,309.28384)" />
    <g
       id="g7988"
       transform="matrix(1.9186684,0,0,-1.8821067,585.07033,309.28384)" />
    <g
       id="g7992"
       transform="matrix(1.9186684,0,0,-1.8821067,587.51763,314.61696)" />
    <g
       id="g7996"
       transform="matrix(1.9186684,0,0,-1.8821067,587.51763,314.61696)" />
    <g
       id="g8000"
       transform="matrix(1.9186684,0,0,-1.8821067,587.51763,308.8549)" />
    <g
       id="g8004"
       transform="matrix(1.9186684,0,0,-1.8821067,589.96508,314.18784)" />
    <g
       id="g8008"
       transform="matrix(1.9186684,0,0,-1.8821067,589.96508,309.28384)" />
    <g
       id="g8012"
       transform="matrix(1.9186684,0,0,-1.8821067,589.96508,309.28384)" />
    <g
       id="g8016"
       transform="matrix(1.9186684,0,0,-1.8821067,580.17542,314.18784)" />
    <g
       id="g8020"
       transform="matrix(1.9186684,0,0,-1.8821067,582.62272,314.61696)" />
    <g
       id="g8024"
       transform="matrix(1.9186684,0,0,-1.8821067,589.96508,314.61696)" />
    <g
       id="g8028"
       transform="matrix(1.9186684,0,0,-1.8821067,589.96508,314.61696)" />
    <g
       id="g8032"
       transform="matrix(1.9186684,0,0,-1.8821067,589.96508,308.8549)" />
    <g
       id="g8036"
       transform="matrix(1.9186684,0,0,-1.8821067,572.84887,329.12838)" />
    <g
       id="g8040"
       transform="matrix(1.9186684,0,0,-1.8821067,572.84887,329.12838)" />
    <g
       id="g8044"
       transform="matrix(1.9186684,0,0,-1.8821067,615.23977,329.12838)" />
    <g
       id="g8048"
       transform="matrix(1.9186684,0,0,-1.8821067,615.23977,329.12838)" />
    <g
       id="g8052"
       transform="matrix(1.9186684,0,0,-1.8821067,581.27351,327.79453)" />
    <g
       id="g8056"
       transform="matrix(1.9186684,0,0,-1.8821067,609.53396,327.79453)" />
    <g
       id="g8084"
       transform="matrix(1.9186684,0,0,-1.8821067,562.57386,328.75761)" />
    <g
       id="g8088"
       transform="matrix(1.9186684,0,0,-1.8821067,562.57386,323.73729)" />
    <g
       id="g8092"
       transform="matrix(1.9186684,0,0,-1.8821067,561.42911,323.3665)" />
    <g
       id="g8176"
       transform="matrix(1.9186684,0,0,-1.8821067,585.07033,328.69946)" />
    <g
       id="g8180"
       transform="matrix(1.9186684,0,0,-1.8821067,582.62272,329.12838)" />
    <g
       id="g8184"
       transform="matrix(1.9186684,0,0,-1.8821067,580.17542,327.79453)" />
    <g
       id="g8188"
       transform="matrix(1.9186684,0,0,-1.8821067,582.62272,323.3665)" />
    <g
       id="g8192"
       transform="matrix(1.9186684,0,0,-1.8821067,585.07033,323.79524)" />
    <g
       id="g8196"
       transform="matrix(1.9186684,0,0,-1.8821067,585.07033,328.69946)" />
    <g
       id="g8200"
       transform="matrix(1.9186684,0,0,-1.8821067,587.51763,323.3665)" />
    <g
       id="g8204"
       transform="matrix(1.9186684,0,0,-1.8821067,587.51763,323.3665)" />
    <g
       id="g8208"
       transform="matrix(1.9186684,0,0,-1.8821067,587.51763,329.12838)" />
    <g
       id="g8212"
       transform="matrix(1.9186684,0,0,-1.8821067,589.96508,328.69946)" />
    <g
       id="g8216"
       transform="matrix(1.9186684,0,0,-1.8821067,589.96508,323.79524)" />
    <g
       id="g8220"
       transform="matrix(1.9186684,0,0,-1.8821067,589.96508,328.69946)" />
    <g
       id="g8224"
       transform="matrix(1.9186684,0,0,-1.8821067,580.17542,323.79524)" />
    <g
       id="g8228"
       transform="matrix(1.9186684,0,0,-1.8821067,582.62272,323.3665)" />
    <g
       id="g8232"
       transform="matrix(1.9186684,0,0,-1.8821067,589.96508,323.3665)" />
    <g
       id="g8236"
       transform="matrix(1.9186684,0,0,-1.8821067,589.96508,323.3665)" />
    <g
       id="g8240"
       transform="matrix(1.9186684,0,0,-1.8821067,589.96508,329.12838)" />
    <g
       id="g8244"
       transform="matrix(1.9186684,0,0,-1.8821067,581.80706,319.52532)" />
    <path
       style="color:#000000;clip-rule:nonzero;display:inline;overflow:visible;visibility:visible;opacity:0.98000004;isolation:auto;mix-blend-mode:normal;color-interpolation:sRGB;color-interpolation-filters:linearRGB;solid-color:#000000;solid-opacity:1;fill:#dcdcdc;fill-opacity:1;fill-rule:evenodd;stroke:none;stroke-width:0.1;stroke-linecap:round;stroke-linejoin:miter;stroke-miterlimit:4;stroke-dasharray:none;stroke-dashoffset:3.99999952;stroke-opacity:1;color-rendering:auto;image-rendering:auto;shape-rendering:auto;text-rendering:auto;enable-background:accumulate"
       d=""
       id="path4314"
       inkscape:connector-curvature="0"
       transform="matrix(9.3011812,0,0,9.3011805,0,-171.40745)" />
    <path
       style="color:#000000;clip-rule:nonzero;display:inline;overflow:visible;visibility:visible;opacity:0.98000004;isolation:auto;mix-blend-mode:normal;color-interpolation:sRGB;color-interpolation-filters:linearRGB;solid-color:#000000;solid-opacity:1;fill:#dcdcdc;fill-opacity:1;fill-rule:evenodd;stroke:none;stroke-width:0.1;stroke-linecap:round;stroke-linejoin:miter;stroke-miterlimit:4;stroke-dasharray:none;stroke-dashoffset:3.99999952;stroke-opacity:1;color-rendering:auto;image-rendering:auto;shape-rendering:auto;text-rendering:auto;enable-background:accumulate"
       d=""
       id="path4328"
       inkscape:connector-curvature="0"
       transform="matrix(9.3011812,0,0,9.3011805,0,-171.40745)" />
    <path
       style="fill:none;fill-opacity:0.98039216;fill-rule:evenodd;stroke:#0024bc;stroke-width:13.15452671;stroke-linecap:butt;stroke-linejoin:miter;stroke-miterlimit:4;stroke-dasharray:none;stroke-opacity:0.96078431"
       d="m 143.08761,86.073475 -0.60182,729.124745 174.47209,115.77684 172.78173,-122.05453 0,-308.39666 0,-415.543305"
       id="path4297-3"
       inkscape:connector-curvature="0"
       sodipodi:nodetypes="cccccc" />
    <path
       style="fill:none;fill-rule:evenodd;stroke:#0729bc;stroke-width:13.15452671;stroke-linecap:butt;stroke-linejoin:miter;stroke-miterlimit:4;stroke-dasharray:none;stroke-opacity:1"
       d="m 489.88544,279.75284 -349.05333,0"
       id="path4329"
       inkscape:connector-curvature="0"
       sodipodi:nodetypes="cc" />
    <rect
       style="color:#000000;clip-rule:nonzero;display:inline;overflow:visible;visibility:visible;opacity:0.98000004;isolation:auto;mix-blend-mode:normal;color-interpolation:sRGB;color-interpolation-filters:linearRGB;solid-color:#000000;solid-opacity:1;fill:#bbbbbb;fill-opacity:0.45535715;fill-rule:evenodd;stroke:#000000;stroke-width:3.50787377;stroke-linecap:round;stroke-linejoin:round;stroke-miterlimit:4;stroke-dasharray:none;stroke-dashoffset:0;stroke-opacity:1;color-rendering:auto;image-rendering:auto;shape-rendering:auto;text-rendering:auto;enable-background:accumulate"
       id="rect4295"
       width="409.23495"
       height="242.62967"
       x="112.02691"
       y="748.73071"
       rx="15.502745"
       ry="8.1925087" />
    <text
       xml:space="preserve"
       style="font-style:normal;font-weight:normal;font-size:91.44178009px;line-height:125%;font-family:sans-serif;letter-spacing:0px;word-spacing:0px;fill:#000000;fill-opacity:1;stroke:none;stroke-width:1px;stroke-linecap:butt;stroke-linejoin:miter;stroke-opacity:1"
       x="52.040359"
       y="42.263927"
       id="text4341"
       sodipodi:linespacing="125%"
       transform="scale(1.0082964,0.99177186)"><tspan
         sodipodi:role="line"
         id="tspan4343"
         x="52.040359"
         y="42.263927">Solekühlung</tspan></text>
    <path
       style="fill:#0023bc;fill-opacity:0.96078431;fill-rule:evenodd;stroke:none;stroke-width:4.3848424px;stroke-linecap:butt;stroke-linejoin:miter;stroke-opacity:1"
       d="m 109.24149,702.41818 33.72352,32.89908 32.50445,-32.82356 z"
       id="path4345"
       inkscape:connector-curvature="0"
       sodipodi:nodetypes="cccc" />
    <path
       style="fill:#0023bc;fill-opacity:0.96078431;fill-rule:evenodd;stroke:none;stroke-width:4.3848424px;stroke-linecap:butt;stroke-linejoin:miter;stroke-opacity:1"
       d="m 455.92925,735.25691 33.72354,-32.89908 32.50445,32.82357 z"
       id="path4345-3"
       inkscape:connector-curvature="0"
       sodipodi:nodetypes="cccc" />
    <text
       xml:space="preserve"
       style="font-style:normal;font-weight:normal;font-size:55.56452942px;line-height:125%;font-family:sans-serif;letter-spacing:0px;word-spacing:0px;fill:#000000;fill-opacity:1;stroke:none;stroke-width:1px;stroke-linecap:butt;stroke-linejoin:miter;stroke-opacity:1"
       x="123.13074"
       y="895.7486"
       id="text4207"
       sodipodi:linespacing="125%"
       transform="scale(0.92163859,1.085024)"><tspan
         sodipodi:role="line"
         id="tspan4209"
         x="123.13074"
         y="895.7486">Kneter</tspan></text>
  </g>
</svg>
