<svg xmlns="http://www.w3.org/2000/svg" width="1166" height="800" xmlns:xlink="http://www.w3.org/1999/xlink" viewBox="0 0 1166 800">
    <defs>
        <linearGradient id="a">
            <stop />
            <stop offset="1" stop-opacity="0" />
        </linearGradient>
        <linearGradient id="b">
            <stop stop-color="#da1a1a" />
            <stop offset="1" stop-color="#108dd2" />
        </linearGradient>
        <linearGradient id="c" x1="669.027" x2="758.145" y1="352.012" y2="285.345" gradientUnits="userSpaceOnUse">
            <stop stop-color="#da1a1a" />
            <stop offset="1" stop-color="#d3d3d3" />
        </linearGradient>
        <radialGradient id="d" cx="728.11" cy="244.01" r="84.06" gradientUnits="userSpaceOnUse" gradientTransform="matrix(2.382 .026 -.039 3.575 -1075.768 -540.574)">
            <stop stop-color="#ea0000" />
            <stop offset=".209" stop-color="#e99b45" />
            <stop offset=".835" stop-color="#deb873" />
            <stop offset="1" stop-color="#d7d0d0" />
        </radialGradient>
        <radialGradient id="e" cx="633.21" cy="251.86" r="84.06" gradientUnits="userSpaceOnUse" gradientTransform="matrix(0 2.382 -2.758 0 1214.589 -1356.525)">
            <stop stop-color="#ea0000" />
            <stop offset=".349" stop-color="#e99b45" />
            <stop offset=".772" stop-color="#deb873" />
            <stop offset="1" stop-color="#aaaaaa" />
        </radialGradient>
        <radialGradient id="f" cx="633.21" cy="251.86" r="84.06" xlink:href="#e" gradientUnits="userSpaceOnUse" gradientTransform="matrix(0 2.382 -2.758 0 1432.272 -1356.525)" />
        <linearGradient id="g" x1="804.346" x2="766.476" y1="414.814" y2="395.711" xlink:href="#a" gradientUnits="userSpaceOnUse" gradientTransform="translate(217.683)" />
        <linearGradient id="h" x1="684.897" x2="647.028" y1="414.814" y2="395.711" xlink:href="#a" gradientUnits="userSpaceOnUse" gradientTransform="translate(217.683)" />
        <linearGradient id="i" x1="669.115" x2="683.262" y1="305.319" y2="344.232" xlink:href="#a" gradientUnits="userSpaceOnUse" gradientTransform="translate(217.683)" />
        <linearGradient id="j" x1="669.115" x2="683.562" y1="252.422" y2="293.291" xlink:href="#a" gradientUnits="userSpaceOnUse" gradientTransform="translate(217.683)" />
        <linearGradient id="D" x1="669.115" x2="688.218" y1="199.83" y2="237.699" xlink:href="#a" gradientUnits="userSpaceOnUse" gradientTransform="translate(217.683)" />
        <radialGradient id="C" cx="728.11" cy="244.01" r="84.06" xlink:href="#d" gradientUnits="userSpaceOnUse" gradientTransform="matrix(2.382 .026 -.039 3.575 -858.085 -540.574)" />
        <linearGradient id="B" x1="669.027" x2="758.145" y1="352.012" y2="285.345" xlink:href="#c" gradientUnits="userSpaceOnUse" gradientTransform="translate(217.683)" />
        <linearGradient id="A" x1="664.253" x2="650.106" y1="702.532" y2="741.446" xlink:href="#a" gradientUnits="userSpaceOnUse" gradientTransform="translate(217.683)" />
        <linearGradient id="z" x1="664.253" x2="649.806" y1="649.636" y2="690.505" xlink:href="#a" gradientUnits="userSpaceOnUse" gradientTransform="translate(217.683)" />
        <linearGradient id="y" x1="664.253" x2="645.151" y1="597.044" y2="634.913" xlink:href="#a" gradientUnits="userSpaceOnUse" gradientTransform="translate(217.683)" />
        <linearGradient id="x" x1="832.192" x2="752.41" y1="688" y2="499.409" xlink:href="#b" gradientUnits="userSpaceOnUse" gradientTransform="translate(217.683)" />
        <radialGradient id="w" cx="633.21" cy="251.86" r="84.06" xlink:href="#e" gradientUnits="userSpaceOnUse" gradientTransform="matrix(0 2.382 2.758 0 -266.292 -1356.525)" />
        <linearGradient id="v" x1="804.346" x2="766.476" y1="414.814" y2="395.711" xlink:href="#a" gradientUnits="userSpaceOnUse" gradientTransform="matrix(-1 0 0 1 948.297 0)" />
        <linearGradient id="u" x1="684.897" x2="647.028" y1="414.814" y2="395.711" xlink:href="#a" gradientUnits="userSpaceOnUse" gradientTransform="matrix(-1 0 0 1 948.297 0)" />
        <linearGradient id="t" x1="669.115" x2="683.262" y1="305.319" y2="344.232" xlink:href="#a" gradientUnits="userSpaceOnUse" gradientTransform="matrix(-1 0 0 1 948.297 0)" />
        <linearGradient id="s" x1="669.115" x2="683.562" y1="252.422" y2="293.291" xlink:href="#a" gradientUnits="userSpaceOnUse" gradientTransform="matrix(-1 0 0 1 948.297 0)" />
        <linearGradient id="r" x1="669.115" x2="688.218" y1="199.83" y2="237.699" xlink:href="#a" gradientUnits="userSpaceOnUse" gradientTransform="matrix(-1 0 0 1 948.297 0)" />
        <radialGradient id="q" cx="728.11" cy="244.01" r="84.06" xlink:href="#d" gradientUnits="userSpaceOnUse" gradientTransform="matrix(-2.382 .026 .039 3.575 2024.065 -540.574)" />
        <linearGradient id="p" x1="669.027" x2="758.145" y1="352.012" y2="285.345" xlink:href="#c" gradientUnits="userSpaceOnUse" gradientTransform="matrix(-1 0 0 1 948.297 0)" />
        <linearGradient id="o" x1="664.253" x2="650.106" y1="702.532" y2="741.446" xlink:href="#a" gradientUnits="userSpaceOnUse" gradientTransform="matrix(-1 0 0 1 948.297 0)" />
        <linearGradient id="n" x1="664.253" x2="649.806" y1="649.636" y2="690.505" xlink:href="#a" gradientUnits="userSpaceOnUse" gradientTransform="matrix(-1 0 0 1 948.297 0)" />
        <linearGradient id="m" x1="664.253" x2="645.151" y1="597.044" y2="634.913" xlink:href="#a" gradientUnits="userSpaceOnUse" gradientTransform="matrix(-1 0 0 1 948.297 0)" />
        <linearGradient id="l" x1="832.192" x2="752.41" y1="688" y2="499.409" xlink:href="#b" gradientUnits="userSpaceOnUse" gradientTransform="matrix(-1 0 0 1 948.297 0)" />
        <linearGradient id="k" x2="0" y1="286.485" y2="629.276" xlink:href="#b" gradientUnits="userSpaceOnUse" gradientTransform="matrix(-1 0 0 1 948.297 0)" />
    </defs>
    <path fill="#f2f2f2" d="M213.236 355.557l-2.426.05-2.474.024 3.552 3.43c1.95 1.87 7.24 6.974 11.76 11.37 4.52 4.393 9.853 9.568 11.834 11.49 1.98 1.92 8.216 7.986 13.866 13.474 29.333 28.49 50.637 49.08 51.646 49.906.32.262 2.896 2.717 5.733 5.464 2.837 2.746 8.372 8.085 12.275 11.858l7.08 6.835H331.007l-2.156-2.107c-2.093-2.054-9.6-9.295-23.2-22.393-3.61-3.475-8.9-8.564-11.736-11.32-2.837-2.753-5.19-5.007-5.243-4.997-.053.01-3.587-3.41-7.864-7.57-4.277-4.162-10.702-10.398-14.283-13.867-3.58-3.47-10.052-9.75-14.382-13.965-4.33-4.214-9.616-9.317-11.734-11.368-2.118-2.05-6.1-5.936-8.844-8.6-2.744-2.663-7.176-6.977-9.874-9.58-2.698-2.6-5.72-5.5-6.688-6.442l-1.764-1.69zm18.203 0c-1.35 0-2.475.04-2.475.074 0 .067 12.842 12.55 20.48 19.92 4.222 4.07 12.976 12.538 24.183 23.42 4.39 4.264 18.347 17.775 28.96 28.03 13.07 12.628 22.368 21.554 22.882 21.975.31.253 2.897 2.7 5.733 5.44 2.835 2.74 5.95 5.765 6.957 6.737 1.007.97 3.344 3.245 5.194 5.047l3.357 3.257h4.974l-2.94-2.842c-1.615-1.578-3.798-3.693-4.85-4.704-1.053-1.01-4.22-4.07-7.056-6.81-2.838-2.74-7.026-6.772-9.31-8.967-2.285-2.195-6.488-6.273-9.335-9.04-2.846-2.767-5.228-5.023-5.292-5.023-.115 0-6.986-6.643-21.926-21.143-7.71-7.483-10.543-10.195-20.752-20.09-2.88-2.793-6.397-6.22-7.815-7.595-1.418-1.376-5.824-5.617-9.8-9.457-3.976-3.84-9.802-9.53-12.96-12.617l-5.758-5.586-2.45-.025zm8.94 0c-1 .023-1.04.103-.88.294.287.35 13.153 12.812 22.245 21.56 3.796 3.654 8.788 8.488 11.074 10.732 6.11 5.997 18.192 17.75 34.642 33.614 5.075 4.893 11.566 11.123 14.406 13.867 2.84 2.744 8.853 8.556 13.377 12.91 4.524 4.356 11.265 10.855 14.97 14.432l6.737 6.492h4.998l-2.156-2.107c-1.19-1.166-5.482-5.278-9.506-9.163-4.025-3.884-9.674-9.388-12.57-12.2-2.893-2.814-5.322-5.12-5.388-5.12-.067 0-2.392-2.23-5.194-4.95-2.803-2.72-9.23-8.897-14.26-13.745-5.028-4.847-12.642-12.228-16.93-16.39-16.853-16.363-30.82-29.913-36.185-35.084-6.07-5.85-14.83-14.37-15.214-14.798-.296-.33-.49-.343-2.817-.343-.576 0-1.015-.008-1.35 0zm11.614 0c-1.354 0-2.378.065-2.327.147.1.164 11.418 11.16 23.005 22.344 1.936 1.868 7.17 6.922 11.638 11.27 9.37 9.12 15.275 14.85 28.15 27.268 5.074 4.894 11.566 11.148 14.406 13.892 2.84 2.744 7.994 7.708 11.466 11.05 9.043 8.702 18.892 18.226 24.28 23.446l4.654 4.483h4.998l-.416-.367c-.227-.213-2.43-2.383-4.9-4.802-2.47-2.42-7.81-7.56-11.834-11.442-4.024-3.883-9.648-9.334-12.495-12.103-2.847-2.77-5.224-5.022-5.293-5.022-.068 0-2.415-2.227-5.218-4.948-2.804-2.72-9.207-8.897-14.235-13.745-5.03-4.847-12.644-12.253-16.93-16.415-9.208-8.942-18.886-18.314-28.493-27.61-3.828-3.705-9.448-9.13-12.495-12.08l-5.513-5.365h-2.45zm10.29 0l-2.45.025 2.426 2.352c1.326 1.303 3.395 3.344 4.63 4.532 1.235 1.188 5.84 5.645 10.217 9.898 4.377 4.253 9.684 9.408 11.81 11.466 2.123 2.058 7.34 7.105 11.587 11.22 4.247 4.117 11.88 11.498 16.954 16.39 5.074 4.895 11.542 11.15 14.382 13.893 2.84 2.744 9.014 8.678 13.72 13.205 9.008 8.667 13.405 12.9 24.426 23.57 3.708 3.59 6.85 6.54 6.958 6.54.107 0 .467-.313.833-.71.365-.396.744-1.004.857-1.347l.22-.612-5.536-5.44c-3.05-2.99-8.946-8.746-13.108-12.763-4.16-4.018-9.865-9.55-12.666-12.275-2.8-2.725-5.15-4.924-5.22-4.924-.066 0-2.414-2.253-5.217-4.974-2.803-2.72-9.206-8.896-14.234-13.744-5.03-4.848-12.644-12.23-16.93-16.39-4.286-4.162-9.516-9.19-11.588-11.197-2.073-2.006-6.218-6.056-9.237-8.99-3.018-2.935-7.582-7.36-10.143-9.825-2.56-2.465-5.894-5.714-7.423-7.203l-2.793-2.695h-2.476zm10.34 0l-2.45.025 1.91 1.862c2.148 2.1 16.678 16.202 21.928 21.29 1.882 1.825 6.973 6.788 11.32 11 4.344 4.212 12.05 11.67 17.124 16.562 5.074 4.894 11.545 11.123 14.382 13.867 2.836 2.745 9.25 8.945 14.234 13.745 4.985 4.8 10.435 10.06 12.127 11.71 1.69 1.65 5.933 5.75 9.432 9.115l6.37 6.125v-4.801l-1.47-1.372c-.8-.77-3.834-3.755-6.762-6.59-2.93-2.836-9.395-9.04-14.333-13.794-4.937-4.755-11.303-10.93-14.185-13.72-2.882-2.79-9.354-9.02-14.38-13.867-8.173-7.88-14.294-13.778-28.617-27.685-2.395-2.325-6.566-6.407-9.31-9.065-6.417-6.214-9.43-9.098-12.446-12.03l-2.402-2.376h-2.475zm12.764 0l-2.45.05-2.426.024 6.836 6.69c15.667 15.225 29.137 28.25 40.082 38.807 5.073 4.893 11.567 11.147 14.405 13.89 2.84 2.745 7.217 7.016 9.776 9.483 2.56 2.467 6.774 6.516 9.335 8.99 2.56 2.477 6.805 6.53 9.408 9.042 2.604 2.512 5.586 5.426 6.664 6.468l1.985 1.886V446.06l-1.544-1.47c-3.216-3.09-25.246-24.305-30.257-29.155-2.88-2.79-9.328-9.02-14.356-13.867-5.028-4.848-12.54-12.12-16.684-16.145-4.145-4.025-10.707-10.387-14.578-14.137-3.87-3.75-9.094-8.82-11.613-11.27l-4.582-4.46zm10.314 0l-2.474.025h-2.45l2.597 2.523c1.433 1.39 6.32 6.148 10.878 10.584 4.557 4.435 10.642 10.348 13.524 13.13 2.88 2.784 6.182 5.996 7.325 7.106 3.59 3.486 12.234 11.818 21.633 20.874 4.984 4.802 11.403 11.02 14.284 13.818 2.88 2.796 6.457 6.233 7.937 7.644 1.48 1.41 4.35 4.146 6.37 6.1l3.675 3.553v-4.827l-1.47-1.372c-.8-.772-4.667-4.51-8.6-8.305s-9.116-8.815-11.54-11.147c-2.422-2.33-5.775-5.552-7.423-7.154-1.648-1.602-7.098-6.89-12.128-11.736-15.784-15.21-19.184-18.467-23.373-22.59-2.242-2.204-7.378-7.216-11.418-11.122l-7.35-7.105zm5.39 0l2.818 2.793c3.267 3.222 12.313 12.028 19.28 18.743 2.65 2.553 5.687 5.45 6.74 6.468 7.564 7.325 13.943 13.495 21.78 21.046 14.885 14.345 19.01 18.353 23.127 22.417 2.155 2.13 3.98 3.87 4.042 3.87.062 0 .126-1.072.122-2.375l-.05-2.352-5.806-5.684c-3.21-3.11-8.18-7.87-11.025-10.61-2.844-2.736-8.254-7.964-12.004-11.587-3.75-3.623-10.06-9.71-14.038-13.548-3.98-3.838-9.87-9.56-13.107-12.716-3.237-3.155-8.372-8.148-11.416-11.097l-5.562-5.366h-4.9zm10.266 0l2.572 2.548c4.266 4.18 14.327 13.934 18.326 17.763 2.054 1.966 6.055 5.804 8.893 8.55 2.838 2.746 7.13 6.912 9.554 9.237 2.424 2.324 6.932 6.65 9.996 9.628 4.883 4.747 11.073 10.714 16.587 16.023l1.715 1.666v-4.802l-6.174-5.978c-3.39-3.293-7.98-7.752-10.192-9.898-4.8-4.657-22.335-21.57-27.905-26.9-2.174-2.082-7.194-6.92-11.147-10.78l-7.203-7.032h-2.5l-2.522-.025zm10.314 0l2.99 2.965c3.917 3.85 11.69 11.34 22.735 21.976 4.892 4.71 11.335 10.913 14.308 13.794 2.973 2.88 6.016 5.858 6.786 6.59.77.732 2.73 2.585 4.338 4.14 1.608 1.556 3.665 3.55 4.557 4.41l1.617 1.568V406.175l-1.225-1.153c-.663-.63-4.578-4.398-8.698-8.378-4.12-3.98-9.463-9.14-11.883-11.466-2.42-2.326-5.673-5.465-7.228-6.983-1.555-1.517-5.796-5.593-9.41-9.065-3.61-3.47-8.197-7.93-10.215-9.922l-3.675-3.65h-4.998zm12.667 0c-1.37 0-2.416.072-2.33.147.088.076 2.64 2.52 5.66 5.44 3.02 2.92 8.63 8.35 12.47 12.053 9.305 8.975 16.464 15.85 19.307 18.596 1.28 1.237 3.162 3.08 4.214 4.09 1.053 1.012 2.69 2.598 3.627 3.504l1.715 1.642v-4.802l-5.44-5.244c-2.98-2.88-6.74-6.51-8.354-8.06-1.612-1.55-5.117-4.957-7.815-7.57-2.698-2.615-6.736-6.526-8.967-8.674-2.23-2.147-5.75-5.532-7.816-7.52l-3.772-3.603h-2.5zm12.714 0l-2.377.05-2.376.024 4.313 4.19c2.37 2.287 5.934 5.723 7.913 7.644 4.415 4.283 20.82 20.088 22.932 22.1l1.544 1.47v-4.802l-6.125-5.88c-3.36-3.242-10.163-9.79-15.092-14.554-4.93-4.762-9.364-9.02-9.85-9.457l-.88-.783zm5.537 0l2.108 2.058c2.68 2.618 18.037 17.453 23.005 22.222l1.3 1.225V376.284l-7.278-7.007-10.73-10.34-3.504-3.38h-4.899zm15.264 0l-2.45.05-2.425.024 6.638 6.42c3.65 3.52 7.233 6.99 7.987 7.717l1.397 1.323v-2.4l-.05-2.402-5.536-5.365-5.562-5.366zm430.292 0l-5.562 5.366-5.56 5.365-.026 2.4v2.402l1.372-1.323c.755-.726 4.363-4.197 8.012-7.717l6.64-6.42-2.45-.024-2.426-.05zm10.34 0l-3.505 3.38-10.73 10.34-7.252 7.007v4.779l1.3-1.225c4.967-4.77 20.3-19.604 22.98-22.222l2.107-2.058h-4.9zm10.436 0l-.882.784c-.485.438-4.92 4.696-9.85 9.458-4.93 4.763-11.732 11.313-15.09 14.553l-6.102 5.88v4.802l1.52-1.47c2.113-2.01 18.517-17.815 22.93-22.098 1.98-1.92 5.546-5.357 7.915-7.644l4.312-4.19-2.377-.024-2.376-.05zm10.216 0l-3.748 3.602-7.816 7.52c-2.23 2.148-6.27 6.06-8.967 8.673-2.698 2.614-6.203 6.02-7.815 7.57-1.613 1.55-5.373 5.18-8.355 8.06l-5.44 5.244v4.802l1.692-1.643c.936-.906 2.573-2.492 3.625-3.503 1.052-1.01 2.958-2.854 4.238-4.09 2.843-2.748 9.977-9.622 19.282-18.597 3.84-3.704 9.475-9.134 12.495-12.054 3.02-2.92 5.548-5.363 5.635-5.44.086-.074-.96-.146-2.328-.146h-2.5zm10.192 0l-3.675 3.65c-2.018 1.993-6.628 6.452-10.24 9.923-3.614 3.472-7.854 7.548-9.41 9.065-1.554 1.518-4.807 4.657-7.226 6.983-2.42 2.325-7.764 7.485-11.884 11.466-4.12 3.98-8.034 7.748-8.697 8.378l-1.202 1.152V411l1.617-1.568c.892-.86 2.95-2.854 4.557-4.41 1.608-1.555 3.542-3.408 4.312-4.14.77-.732 3.814-3.71 6.787-6.59 2.974-2.88 9.44-9.084 14.333-13.794 11.046-10.636 18.794-18.127 22.71-21.976l3.015-2.965h-4.998zm15.312 0l-2.523.025h-2.5l-7.203 7.03c-3.953 3.863-8.973 8.7-11.147 10.78-5.57 5.333-23.13 22.245-27.93 26.902-2.212 2.146-6.778 6.605-10.168 9.898l-6.174 5.978v4.802l1.69-1.666c5.515-5.31 11.705-11.276 16.587-16.023 3.064-2.98 7.572-7.304 9.996-9.63 2.425-2.323 6.718-6.49 9.556-9.235 2.838-2.746 6.864-6.584 8.918-8.55 4-3.83 14.035-13.583 18.3-17.763l2.598-2.548zm5.34 0l-5.56 5.366c-3.045 2.95-8.155 7.942-11.393 11.098-3.238 3.157-9.13 8.88-13.108 12.717-3.98 3.837-10.313 9.925-14.063 13.548-3.75 3.623-9.16 8.85-12.006 11.588-2.846 2.738-7.79 7.5-11 10.61l-5.83 5.683-.026 2.352c-.007 1.303.06 2.376.123 2.376.064 0 1.863-1.742 4.02-3.87 4.116-4.065 8.24-8.073 23.127-22.418 7.836-7.55 14.215-13.72 21.78-21.045 1.052-1.018 4.088-3.914 6.738-6.467 6.967-6.715 16.014-15.52 19.28-18.743l2.843-2.793h-4.924zm10.29 0l-7.35 7.105c-4.04 3.906-9.15 8.918-11.39 11.123-4.19 4.122-7.59 7.38-23.374 22.59-5.03 4.846-10.504 10.133-12.152 11.734-1.647 1.6-4.976 4.822-7.4 7.153-2.422 2.332-7.63 7.352-11.563 11.148-3.933 3.797-7.774 7.534-8.575 8.306l-1.47 1.372V440.914l3.675-3.552c2.02-1.954 4.866-4.69 6.346-6.1 1.478-1.41 5.055-4.848 7.937-7.644 2.88-2.797 9.3-9.016 14.283-13.818 9.4-9.056 18.042-17.388 21.633-20.874 1.144-1.11 4.444-4.322 7.326-7.105 2.88-2.782 8.966-8.695 13.523-13.13 4.557-4.437 9.444-9.195 10.878-10.585l2.622-2.523h-2.474l-2.475-.025zm10.316 0l-4.582 4.46c-2.518 2.448-7.742 7.52-11.613 11.27-3.87 3.75-10.433 10.11-14.577 14.136-4.145 4.024-11.632 11.297-16.66 16.145-5.028 4.848-11.5 11.077-14.38 13.867-5.012 4.85-27.043 26.066-30.26 29.155L787 446.06V450.885l1.96-1.885c1.078-1.042 4.085-3.956 6.69-6.468 2.602-2.513 6.82-6.565 9.382-9.04 2.56-2.476 6.775-6.525 9.335-8.992 2.56-2.467 6.937-6.738 9.775-9.482 2.838-2.744 9.332-8.998 14.406-13.89 10.945-10.557 24.415-23.583 40.082-38.81l6.835-6.687-2.425-.024-2.45-.05zm10.29 0l-2.4 2.377c-3.016 2.93-6.03 5.815-12.447 12.03-2.743 2.657-6.915 6.74-9.31 9.064-14.323 13.907-20.444 19.806-28.615 27.685-5.027 4.848-11.475 11.076-14.357 13.867-2.882 2.79-9.273 8.965-14.21 13.72-4.937 4.755-11.38 10.958-14.308 13.793-2.928 2.836-5.96 5.82-6.762 6.59l-1.47 1.373v4.803l6.346-6.125c3.498-3.366 7.74-7.464 9.432-9.114 1.692-1.652 7.167-6.913 12.152-11.712 4.985-4.8 11.374-11 14.21-13.745 2.836-2.744 9.307-8.973 14.38-13.867 5.076-4.893 12.806-12.35 17.15-16.56 4.347-4.213 9.438-9.177 11.32-11.002 5.25-5.088 19.78-19.19 21.928-21.29l1.91-1.862-2.474-.025h-2.474zm10.363 0l-2.792 2.695c-1.53 1.49-4.887 4.738-7.448 7.203-2.56 2.465-7.124 6.89-10.143 9.825-3.018 2.934-7.164 6.984-9.236 8.99-2.07 2.01-7.277 7.036-11.563 11.198-4.286 4.16-11.926 11.542-16.954 16.39-5.028 4.848-11.407 11.023-14.21 13.744-2.802 2.72-5.175 4.974-5.243 4.974-.067 0-2.393 2.2-5.194 4.924-2.8 2.725-8.53 8.257-12.69 12.275-4.162 4.017-10.057 9.774-13.108 12.764l-5.513 5.438.196.613c.115.344.493.952.86 1.348.364.397.75.71.856.71.108 0 3.225-2.95 6.934-6.54 11.02-10.67 15.417-14.903 24.426-23.57 4.706-4.527 10.88-10.46 13.72-13.205 2.84-2.744 9.308-8.998 14.38-13.892 5.075-4.892 12.734-12.273 16.98-16.39 4.246-4.115 9.44-9.162 11.564-11.22 2.124-2.058 7.456-7.213 11.833-11.466 4.378-4.253 8.957-8.71 10.192-9.898 1.235-1.188 3.33-3.23 4.655-4.532l2.4-2.352-2.45-.025h-2.45zm10.316 0l-5.537 5.366c-3.05 2.95-8.668 8.374-12.496 12.078-9.608 9.298-19.26 18.67-28.47 27.612-4.285 4.162-11.925 11.568-16.953 16.415-5.027 4.848-11.407 11.024-14.21 13.745-2.802 2.72-5.174 4.95-5.242 4.95-.068 0-2.445 2.252-5.292 5.02-2.847 2.77-8.47 8.22-12.495 12.104-4.023 3.883-9.338 9.022-11.808 11.442-2.47 2.42-4.698 4.59-4.924 4.802l-.392.367h4.998l4.63-4.483c5.388-5.22 15.237-14.744 24.28-23.447 3.47-3.34 8.625-8.305 11.465-11.05 2.84-2.743 9.332-8.997 14.405-13.89 12.875-12.418 18.806-18.148 28.175-27.27 4.467-4.347 9.702-9.4 11.638-11.27 11.588-11.182 22.88-22.18 22.98-22.343.052-.082-.973-.147-2.327-.147h-2.424zm11.32 0c-1.053.022-1.225.096-1.447.343-.384.427-9.12 8.947-15.19 14.798-5.366 5.17-19.333 18.72-36.187 35.084-4.287 4.162-11.926 11.543-16.954 16.39-5.03 4.848-11.457 11.024-14.26 13.745-2.803 2.72-5.128 4.95-5.194 4.95-.067 0-2.496 2.306-5.39 5.12-2.894 2.812-8.544 8.316-12.568 12.2-4.025 3.885-8.317 7.997-9.506 9.163l-2.132 2.107h4.998l6.713-6.492c3.705-3.577 10.447-10.076 14.97-14.43 4.524-4.356 10.537-10.168 13.377-12.912 2.84-2.744 9.332-8.974 14.406-13.867 16.45-15.863 28.558-27.617 34.668-33.614 2.287-2.244 7.254-7.078 11.05-10.73 9.092-8.75 21.958-21.213 22.246-21.56.21-.256.07-.295-2.23-.295-.58 0-1.02-.007-1.37 0zm11.66 0l-2.425.025-5.78 5.586c-3.16 3.086-8.985 8.778-12.96 12.617-3.977 3.84-8.36 8.08-9.777 9.457-1.418 1.376-4.96 4.802-7.84 7.595-10.21 9.895-13.04 12.607-20.75 20.09-14.942 14.5-21.813 21.143-21.93 21.143-.063 0-2.444 2.256-5.29 5.023-2.847 2.767-7.026 6.845-9.31 9.04-2.285 2.195-6.497 6.228-9.335 8.967-2.838 2.74-6.004 5.8-7.056 6.81-1.052 1.012-3.236 3.127-4.85 4.705l-2.94 2.842h4.974l3.355-3.258c1.852-1.803 4.19-4.077 5.195-5.048 1.006-.972 4.147-3.997 6.983-6.738 2.835-2.74 5.423-5.186 5.732-5.44.514-.42 9.79-9.346 22.86-21.975 10.61-10.255 24.568-23.766 28.958-28.03 11.207-10.882 19.985-19.35 24.206-23.42 7.64-7.37 20.457-19.853 20.457-19.92 0-.034-1.124-.074-2.473-.073zm18.204 0l-1.764 1.69c-.968.942-3.99 3.842-6.69 6.444-2.697 2.603-7.128 6.917-9.872 9.58-2.744 2.664-6.726 6.55-8.844 8.6-2.12 2.05-7.406 7.154-11.736 11.368-4.33 4.214-10.776 10.496-14.357 13.965-3.58 3.47-10.03 9.705-14.308 13.867-4.278 4.16-7.812 7.58-7.865 7.57-.053-.01-2.407 2.244-5.243 4.998-2.837 2.755-8.102 7.844-11.71 11.32-13.602 13.097-21.11 20.338-23.203 22.392l-2.18 2.107h4.948l7.08-6.835c3.903-3.773 9.413-9.112 12.25-11.858 2.838-2.747 5.413-5.202 5.733-5.464 1.01-.825 22.314-21.417 51.647-49.906 5.65-5.488 11.91-11.554 13.892-13.475 1.98-1.922 7.288-7.097 11.807-11.49 4.52-4.396 9.81-9.5 11.76-11.37l3.553-3.43-2.475-.024-2.425-.05zm-734.14.025l2.5 2.45c3.397 3.342 12.664 12.347 21.094 20.482 3.84 3.704 10.46 10.118 14.7 14.234 19.712 19.137 30.23 29.272 40.205 38.88 4.84 4.666 11.93 11.55 15.777 15.265 3.846 3.714 7.274 6.965 7.595 7.227.32.262 2.844 2.69 5.635 5.39 2.79 2.7 6.247 6.03 7.693 7.424l2.62 2.523h2.426c1.32 0 2.4-.01 2.4-.05 0-.056-4.55-4.453-20.7-20.04-1.1-1.06-4.36-4.222-7.253-7.03-2.893-2.81-5.326-5.122-5.39-5.122-.115 0-7.294-6.888-21.927-21.094-9.228-8.958-18.7-18.18-28.396-27.56-6.616-6.403-15.686-15.194-28.493-27.637l-5.488-5.34h-5zm723.777 0l-5.488 5.34c-12.81 12.444-21.88 21.235-28.495 27.637-9.697 9.38-19.168 18.602-28.395 27.56-14.633 14.207-21.812 21.095-21.928 21.095-.063 0-2.472 2.312-5.365 5.12-2.893 2.81-6.18 5.973-7.277 7.032-16.152 15.587-20.702 19.984-20.702 20.04 0 .04 1.105.05 2.426.05h2.4l2.622-2.523c1.445-1.395 4.902-4.723 7.693-7.424 2.79-2.7 5.338-5.128 5.658-5.39.32-.262 3.724-3.513 7.57-7.227 3.848-3.715 10.962-10.6 15.803-15.264 9.975-9.61 20.47-19.745 40.18-38.882 4.24-4.116 10.862-10.53 14.7-14.234 8.43-8.135 17.698-17.14 21.095-20.482l2.5-2.45h-4.998zm-737.79 1.64l-.367.59c-.403.682-.656 1.72-.662 2.596-.004.564.195.783 3.7 4.14 2.043 1.958 7.08 6.826 11.172 10.805 4.092 3.98 9.275 9.026 11.54 11.22 2.263 2.196 8.732 8.503 14.38 13.99 28.046 27.25 50.636 49.06 51.67 49.907.31.253 2.872 2.692 5.71 5.44 2.837 2.745 7.193 6.93 9.628 9.284l4.41 4.263h2.425c1.336 0 2.426-.015 2.426-.05 0-.058-12.67-12.296-21.953-21.216-2.428-2.33-6.747-6.533-9.63-9.333-2.88-2.8-5.31-5.083-5.364-5.072-.054.01-3.588-3.36-7.865-7.52-4.277-4.163-10.702-10.424-14.283-13.893-3.58-3.468-10.052-9.775-14.382-13.99-12.796-12.453-37.247-36.092-41.208-39.86l-1.348-1.3zm756.826 0l-1.348 1.3c-3.96 3.768-28.437 27.406-41.233 39.86-4.33 4.215-10.776 10.522-14.357 13.99-3.58 3.47-10.03 9.73-14.308 13.892-4.277 4.16-7.81 7.532-7.864 7.52-.054-.01-2.484 2.272-5.366 5.073-2.88 2.8-7.2 7.002-9.628 9.334-9.284 8.92-21.93 21.16-21.93 21.218 0 .034 1.067.05 2.402.05h2.45l4.41-4.264c2.435-2.355 6.767-6.54 9.604-9.285 2.838-2.748 5.4-5.187 5.71-5.44 1.034-.847 23.624-22.658 51.67-49.907 5.647-5.487 12.117-11.794 14.38-13.99 2.264-2.194 7.472-7.24 11.564-11.22 4.093-3.98 9.13-8.847 11.172-10.804 3.505-3.36 3.704-3.578 3.7-4.142-.008-.875-.284-1.914-.686-2.597l-.343-.587zm-757.855 8.92v4.8l3.945 3.823c2.18 2.104 7.04 6.78 10.78 10.388 9.097 8.774 23.366 22.62 29.105 28.273 4.615 4.546 16.59 16.21 24.598 23.912 2.287 2.2 7.377 7.118 11.344 10.95 3.966 3.834 7.29 7 7.374 7.033.086.033 3.45 3.206 7.448 7.08l7.252 7.057h4.974l-1.152-1.102c-1.388-1.364-10.19-9.9-15.876-15.362-2.237-2.15-6.427-6.19-9.31-8.99-2.883-2.8-5.312-5.058-5.365-5.048-.054.01-3.588-3.385-7.865-7.546-4.277-4.163-10.702-10.426-14.283-13.893-3.58-3.466-6.54-6.33-6.566-6.394-.025-.064-1.987-2.042-4.385-4.36-2.397-2.32-7.797-7.538-12.004-11.614-8.295-8.037-9.738-9.42-19.967-19.282-3.745-3.61-7.536-7.293-8.428-8.16l-1.617-1.567zm758.884 0l-1.617 1.567c-.892.865-4.707 4.547-8.453 8.158-10.23 9.86-11.647 11.245-19.943 19.28-4.208 4.077-9.632 9.295-12.03 11.614-2.398 2.32-4.36 4.297-4.385 4.36-.026.065-2.96 2.93-6.542 6.395-3.58 3.467-10.03 9.73-14.308 13.892-4.277 4.16-7.81 7.555-7.864 7.545-.053-.01-2.482 2.247-5.365 5.047s-7.072 6.842-9.31 8.99c-5.686 5.464-14.487 14-15.876 15.363l-1.152 1.102h4.974l7.276-7.056c3.997-3.874 7.338-7.047 7.423-7.08.087-.03 3.41-3.198 7.376-7.03 3.966-3.834 9.057-8.753 11.343-10.952 8.006-7.702 20.007-19.366 24.622-23.912 5.74-5.654 20.008-19.5 29.105-28.273 3.74-3.607 8.575-8.284 10.756-10.388l3.97-3.822v-4.802zm-758.884 10.02v4.753l10.34 9.995c11.77 11.357 21.435 20.737 28.566 27.76 6.213 6.116 28.31 27.476 29.204 28.223.606.506 7.046 6.684 19.11 18.375l4.312 4.19h4.998l-1.495-1.422c-.823-.79-5.627-5.406-10.657-10.265-5.03-4.858-11.393-11.005-14.137-13.646-16.505-15.882-28.756-27.725-28.813-27.856-.026-.062-1.96-1.99-4.312-4.263-2.35-2.273-7.99-7.734-12.52-12.128-8.002-7.762-19.693-19.058-22.98-22.196l-1.617-1.518zm758.884 0l-1.617 1.52c-3.286 3.137-14.978 14.433-22.98 22.195-4.53 4.394-10.193 9.855-12.545 12.128-2.352 2.272-4.286 4.2-4.312 4.263-.056.13-12.308 11.974-28.812 27.856-2.744 2.64-9.106 8.788-14.136 13.647-5.03 4.86-9.81 9.475-10.633 10.266l-1.52 1.42h5l4.335-4.188c12.064-11.69 18.504-17.87 19.11-18.375.894-.747 22.967-22.107 29.18-28.224 7.13-7.023 16.797-16.403 28.566-27.76l10.364-9.995v-4.753zm-758.884 9.97V390.91l3.283 3.16c3.356 3.214 14.532 14.074 24.697 23.986 10.446 10.186 34.46 33.408 35.133 33.982.366.312 3.07 2.897 6.002 5.733s6.84 6.622 8.722 8.43l3.43 3.257h4.948l-.833-.784c-.456-.445-3.167-3.03-6.002-5.757-2.836-2.728-7.21-6.955-9.727-9.384-2.515-2.43-8.534-8.247-13.376-12.91-14.397-13.872-19.794-19.09-19.845-19.21-.027-.06-1.96-1.965-4.312-4.238-2.352-2.272-7.912-7.676-12.348-11.98-8.012-7.774-14.524-14.05-17.983-17.346l-1.79-1.715zm758.884 0l-1.79 1.716c-3.458 3.296-9.994 9.572-18.006 17.346-4.436 4.304-9.996 9.708-12.348 11.98-2.352 2.273-4.286 4.177-4.312 4.24-.05.118-5.448 5.336-19.845 19.207-4.84 4.665-10.86 10.483-13.376 12.912-2.516 2.43-6.89 6.656-9.726 9.384-2.836 2.728-5.546 5.312-6.003 5.757l-.833.784h4.949l3.43-3.258c1.883-1.808 5.816-5.594 8.748-8.43 2.93-2.835 5.636-5.42 6.002-5.732.673-.574 24.688-23.796 35.133-33.982 10.165-9.912 21.316-20.772 24.67-23.985l3.31-3.16v-4.776zm-758.884 9.923v4.828l3.773 3.65 12.668 12.2c4.893 4.715 10.69 10.36 12.887 12.57 4.043 4.072 27.826 27.1 28.664 27.758.25.196 3.236 3.055 6.663 6.37l6.248 6.027h5l-.418-.367c-.226-.217-2.804-2.712-5.733-5.537-2.93-2.825-8.138-7.806-11.565-11.1-3.426-3.292-8.34-8.066-10.902-10.583-4.067-3.995-7.5-7.356-22.834-22.197-8.504-8.23-12.98-12.532-17.224-16.61-2.56-2.462-5.245-5.044-5.954-5.734l-1.274-1.274zm758.884 0l-1.3 1.274c-.707.69-3.367 3.27-5.928 5.732-4.243 4.08-8.72 8.382-17.223 16.61-15.334 14.842-18.79 18.203-22.857 22.198-2.563 2.517-7.476 7.29-10.903 10.584-3.426 3.293-8.635 8.274-11.564 11.1-2.93 2.824-5.506 5.32-5.733 5.536l-.392.367h5l6.222-6.027c3.428-3.315 6.414-6.174 6.664-6.37.838-.657 24.622-23.686 28.665-27.758 2.196-2.21 7.995-7.855 12.888-12.57 4.893-4.713 10.59-10.197 12.666-12.2l3.798-3.65v-4.827zm-758.884 9.996v4.803l3.283 3.16c1.804 1.734 5.326 5.137 7.84 7.57 2.516 2.436 6.203 6 8.184 7.915 1.98 1.914 7.136 6.912 11.466 11.123 4.33 4.212 10.36 10.043 13.377 12.96 11.085 10.717 14.47 14.015 15.46 14.946l1.028.93h4.876l-2.792-2.694c-1.534-1.49-4.863-4.73-7.424-7.203-5.51-5.32-9.84-9.506-20.237-19.6-4.237-4.115-10.266-9.94-13.376-12.96-3.11-3.02-7.622-7.423-10.044-9.752-2.423-2.33-5.537-5.31-6.91-6.64-1.372-1.33-3.008-2.91-3.625-3.503l-1.102-1.054zm758.884 0l-1.127 1.055c-.617.592-2.23 2.174-3.602 3.503-1.372 1.33-4.486 4.31-6.91 6.64-2.42 2.33-6.957 6.73-10.068 9.75-3.11 3.02-9.14 8.847-13.377 12.96-10.398 10.096-14.7 14.28-20.212 19.6-2.56 2.473-5.915 5.715-7.448 7.204l-2.793 2.695h4.875l1.03-.93c.99-.932 4.398-4.23 15.483-14.946 3.018-2.917 9.047-8.748 13.377-12.96 4.33-4.21 9.46-9.208 11.44-11.122 1.983-1.915 5.67-5.48 8.184-7.914 2.516-2.434 6.038-5.837 7.84-7.57l3.308-3.16v-4.803zm-758.81 10.022l-.05 2.4-.024 2.377.784.734c.87.803.887.822 12.912 12.495 4.563 4.43 9.88 9.6 11.858 11.514 1.976 1.914 7.06 6.826 11.27 10.903 4.208 4.076 8.964 8.684 10.56 10.216l2.914 2.744h4.9l-2.376-2.278c-1.303-1.263-5.78-5.613-9.972-9.68-19.085-18.515-31.5-30.522-39.2-37.95l-3.576-3.478zm758.712 0l-3.577 3.48c-7.698 7.426-20.114 19.433-39.2 37.95-4.19 4.065-8.643 8.415-9.947 9.677l-2.4 2.277h4.924l2.915-2.744c1.594-1.532 6.326-6.14 10.534-10.216 4.208-4.077 9.294-8.99 11.27-10.903 1.976-1.914 7.32-7.085 11.882-11.515 12.025-11.674 12.017-11.693 12.887-12.496l.81-.735-.025-2.377-.074-2.4zm-758.712 9.996l-.05 2.327-.024 2.328 2.842 2.793c1.58 1.53 4.182 4.052 5.782 5.61 1.6 1.558 4.902 4.73 7.326 7.056 2.423 2.327 8.302 8.016 13.058 12.642 4.756 4.627 9.177 8.917 9.825 9.53l1.177 1.103h4.948l-1.176-1.127c-.64-.63-3.81-3.723-7.056-6.86-3.247-3.136-11.275-10.882-17.86-17.248-6.586-6.366-13.512-13.067-15.387-14.87l-3.405-3.284zm758.712 0l-3.406 3.283c-1.875 1.805-8.8 8.506-15.385 14.872-6.586 6.366-14.614 14.112-17.86 17.248-3.248 3.137-6.417 6.23-7.057 6.86l-1.176 1.127h4.975l1.175-1.102c.647-.614 5.068-4.904 9.824-9.53 4.756-4.627 10.61-10.316 13.034-12.643 2.424-2.326 5.725-5.498 7.325-7.056 1.6-1.558 4.202-4.08 5.782-5.61l2.867-2.793-.024-2.328-.074-2.327zm-758.712 9.824l-.05 2.328c-.033 1.718.017 2.432.172 2.62.117.143 4.224 4.128 9.114 8.846 4.89 4.718 11.433 11.074 14.578 14.16l5.733 5.61h5.022l-1.642-1.616c-.915-.886-3.68-3.595-6.15-6.027s-7.757-7.55-11.735-11.392c-3.98-3.84-8.974-8.677-11.123-10.755l-3.92-3.773zm758.712 0l-3.896 3.773c-2.15 2.078-7.168 6.914-11.147 10.756-3.978 3.843-9.265 8.96-11.735 11.393-2.47 2.432-5.234 5.14-6.15 6.027l-1.64 1.617h5.022l5.733-5.61c3.144-3.087 9.687-9.443 14.577-14.16 4.89-4.72 8.997-8.704 9.114-8.846.157-.188.23-.902.197-2.62l-.073-2.328zm-758.712 9.972l-.05 2.376-.024 2.352 2.107 2.083c1.17 1.145 5.548 5.386 9.727 9.432l7.595 7.35h4.9l-2.916-2.866c-1.593-1.592-7.026-6.934-12.102-11.833l-9.236-8.893zm758.712 0l-9.237 8.893c-5.076 4.9-10.51 10.24-12.102 11.834l-2.916 2.867h4.923l7.57-7.35c4.18-4.046 8.558-8.287 9.727-9.432l2.132-2.083-.024-2.352-.074-2.376zm-758.786 9.898v4.851l4.582 4.434 4.557 4.41H217.744l-.564-.54c-1.428-1.37-11.338-10.927-12.42-11.98l-1.202-1.175zm758.884 0l-1.2 1.176c-1.084 1.052-11.018 10.61-12.447 11.98l-.563.54h5.071l4.557-4.41 4.582-4.435v-4.851z" />
    <path fill="#ffa601" d="M483.543 405.17v20.628h61.52v-20.63h-61.52zm137.37 0v20.628h61.52v-20.63h-61.52z" />
    <path fill="#bbbbbb" d="M235.016 343.724c-1.075 0-1.935.885-1.935 1.96v3.97h-26.116c-4.976 0-9.065 4.088-9.065 9.064v107.505c0 4.976 4.088 9.09 9.064 9.09h21.584v1.886c0 .76.61 1.37 1.372 1.37h.81c.76 0 1.37-.61 1.37-1.37v-1.887h6.64v1.886c0 .76.634 1.37 1.396 1.37h.81c.76 0 1.395-.61 1.395-1.37v-1.887h97.682v1.886c0 .76.635 1.37 1.397 1.37h.783c.762 0 1.372-.61 1.372-1.37v-1.887h6.64v1.886c0 .76.634 1.37 1.396 1.37h.858c.763 0 1.348-.61 1.348-1.37v-1.887h21.83c4.975 0 9.09-4.114 9.09-9.09v-40.45h23.47v20.31c0 4.472 3.662 8.16 8.134 8.16h61.274c4.47 0 8.134-3.688 8.134-8.16v-61.248c0-4.472-3.663-8.16-8.134-8.16H416.34c-4.472 0-8.134 3.688-8.134 8.16v20.334h-23.47v-46.452c0-4.976-4.115-9.065-9.09-9.065H356.29v-3.97c0-1.074-.885-1.96-1.96-1.96h-1.176c-1.074 0-1.935.886-1.935 1.96v3.97h-9.36v-3.97c0-1.074-.885-1.96-1.96-1.96h-1.127c-1.075 0-1.96.886-1.96 1.96v3.97H262.53v-3.97c0-1.074-.86-1.96-1.936-1.96h-1.176c-1.075 0-1.936.886-1.936 1.96v3.97h-19.355v-3.97c0-1.074-.86-1.96-1.935-1.96h-1.176zm576.63 0c-1.076 0-1.936.885-1.936 1.96v3.97h-19.38c-4.976 0-9.09 4.088-9.09 9.064v46.45h-23.446v-20.333c0-4.472-3.687-8.16-8.158-8.16h-61.25c-4.47 0-8.158 3.688-8.158 8.16v61.25c0 4.47 3.687 8.158 8.158 8.158h61.25c4.47 0 8.158-3.688 8.158-8.16v-20.31h23.447v40.45c0 4.976 4.114 9.09 9.09 9.09h21.83v1.886c0 .76.61 1.37 1.372 1.37h.833c.762 0 1.396-.61 1.396-1.37v-1.887h6.64v1.886c0 .76.61 1.37 1.373 1.37h.808c.763 0 1.373-.61 1.373-1.37v-1.887h97.706v1.886c0 .76.608 1.37 1.37 1.37h.834c.762 0 1.372-.61 1.372-1.37v-1.887h6.64v1.886c0 .76.633 1.37 1.395 1.37h.785c.763 0 1.372-.61 1.372-1.37v-1.887h21.585c4.976 0 9.09-4.114 9.09-9.09V358.718c0-4.976-4.114-9.065-9.09-9.065H932.92v-3.97c0-1.074-.886-1.96-1.96-1.96h-1.177c-1.074 0-1.935.886-1.935 1.96v3.97h-19.33v-3.97c0-1.074-.886-1.96-1.96-1.96h-1.176c-1.075 0-1.936.886-1.936 1.96v3.97h-74.283v-3.97c0-1.074-.86-1.96-1.936-1.96h-1.15c-1.076 0-1.937.886-1.937 1.96v3.97h-9.383v-3.97c0-1.074-.86-1.96-1.936-1.96h-1.175zM206.963 356.22h26.117v4.213c0 1.075.86 1.935 1.936 1.935h1.176c1.075 0 1.935-.86 1.935-1.935v-4.214h19.355v4.213c0 1.075.86 1.935 1.936 1.935h1.176c1.075 0 1.935-.86 1.935-1.935v-4.214h74.283v4.213c0 1.075.885 1.935 1.96 1.935h1.127c1.075 0 1.96-.86 1.96-1.935v-4.214h9.36v4.213c0 1.075.86 1.935 1.934 1.935h1.176c1.075 0 1.96-.86 1.96-1.935v-4.214h19.355c1.442 0 2.5 1.056 2.5 2.498v107.505c0 1.442-1.058 2.5-2.5 2.5h-21.83v-1.985c0-.763-.584-1.348-1.347-1.348h-.857c-.76 0-1.396.585-1.396 1.348v1.984h-6.64v-1.984c0-.763-.61-1.348-1.37-1.348h-.785c-.763 0-1.398.585-1.398 1.348v1.984h-97.68v-1.984c0-.763-.635-1.348-1.397-1.348h-.81c-.76 0-1.395.585-1.395 1.348v1.984h-6.64v-1.984c0-.763-.61-1.348-1.37-1.348h-.81c-.762 0-1.372.585-1.372 1.348v1.984h-21.584c-1.442 0-2.5-1.057-2.5-2.5V358.72c0-1.442 1.058-2.5 2.5-2.5zm583.366 0h19.38v4.213c0 1.075.86 1.935 1.935 1.935h1.176c1.076 0 1.937-.86 1.937-1.935v-4.214h9.383v4.213c0 1.075.86 1.935 1.936 1.935h1.15c1.076 0 1.937-.86 1.937-1.935v-4.214h74.283v4.213c0 1.075.86 1.935 1.936 1.935h1.176c1.075 0 1.96-.86 1.96-1.935v-4.214h19.33v4.213c0 1.075.86 1.935 1.935 1.935h1.176c1.074 0 1.96-.86 1.96-1.935v-4.214h26.092c1.442 0 2.5 1.056 2.5 2.498v107.505c0 1.442-1.058 2.5-2.5 2.5h-21.585v-1.985c0-.763-.61-1.348-1.372-1.348h-.784c-.76 0-1.395.585-1.395 1.348v1.984h-6.64v-1.984c0-.763-.61-1.348-1.37-1.348h-.834c-.762 0-1.37.585-1.37 1.348v1.984h-97.707v-1.984c0-.763-.61-1.348-1.372-1.348h-.807c-.763 0-1.372.585-1.372 1.348v1.984h-6.64v-1.984c0-.763-.633-1.348-1.395-1.348h-.833c-.763 0-1.372.585-1.372 1.348v1.984h-21.83c-1.442 0-2.5-1.057-2.5-2.5V358.72c0-1.442 1.058-2.5 2.5-2.5zm-206.264 5.683c-.39.004-.762.105-1.103.294l-34.545 18.595c-1.31.707-2.85 1.376-4.287 2.5-1.435 1.122-2.743 3.06-2.743 5.39v57.402c0 4.47 3.663 8.16 8.134 8.16h69.09c4.472 0 8.135-3.69 8.135-8.16V388.68c0-2.294-1.2-4.263-2.646-5.462-1.377-1.14-2.905-1.82-4.362-2.426l-34.545-18.595c-.27-.156-.573-.256-.882-.294-.078-.004-.166-.004-.244 0zm0 5.022l33.442 18.032c.067.043.126.062.196.098 1.444.598 2.696 1.176 3.406 1.764.71.587.93.947.93 1.86v57.404c0 1.947-1.483 3.455-3.43 3.455h-69.09c-1.946 0-3.43-1.51-3.43-3.456V388.68c0-.878.178-1.075.932-1.665.754-.59 2.11-1.24 3.626-2.058l33.418-18.032zm-178.653 2.156v4.313h83.128v-4.312h-83.127zm272.022 0v4.313h83.152v-4.312h-83.152zm-261.095 12.3h61.274c1.947 0 3.43 1.508 3.43 3.455v61.25c0 1.946-1.483 3.454-3.43 3.454H416.34c-1.947 0-3.43-1.51-3.43-3.456v-61.25c0-1.946 1.483-3.454 3.43-3.454zm272.046 0h61.25c1.947 0 3.454 1.508 3.454 3.455v61.25c0 1.946-1.507 3.454-3.454 3.454h-61.25c-1.947 0-3.454-1.51-3.454-3.456v-61.25c0-1.946 1.507-3.454 3.454-3.454zm-282.973 76.17v4.337h83.128v-4.337h-83.127zm272.022 0v4.337h83.152v-4.337h-83.152z" />
    <path fill="url(#k)" d="M232.875 183.063c-2.35.033-4.572 1.786-5.156 4.062-.586 2.276.52 4.87 2.56 6.03l74.19 42.814H233c-2.37-.023-4.665 1.71-5.28 4-.618 2.287.5 4.92 2.56 6.093l74.19 42.812H233c-2.37-.02-4.665 1.71-5.28 4-.618 2.29.5 4.922 2.56 6.094l91.657 52.905c.814.468 1.75.718 2.688.72h15.844v104h10.78V347.186c.003-2.82-2.554-5.393-5.375-5.406h-19.78l-72.97-42.092h71.5c2.35-.003 4.574-1.73 5.188-4 .613-2.27-.44-4.877-2.47-6.063l-74.25-42.875h71.532c2.332-.025 4.515-1.75 5.125-4 .61-2.25-.406-4.832-2.406-6.03l-74.25-42.876c100.29-.084 200.578.062 300.78.062h.313c13.86 0 22.907 9.216 22.907 22.063-.03 25.014.125 50.08.125 75.468l-6.94 14.343V408.625l12.69-6.844c.433-.24.91-.37 1.405-.374.1-.005.213-.005.313 0 .394.05.78.177 1.125.375l9.937 5.345V305.78l-6.938-14.342c-.086-25.17.14-50.573.063-75.47 0-12.846 11.08-22.062 22.906-22.062h.314c100.213-.08 200.512-.062 300.812-.062l-74.218 42.875c-1.996 1.195-3.07 3.783-2.47 6.03.603 2.247 2.83 3.962 5.157 4h71.53l-74.217 42.875c-2.025 1.183-3.106 3.797-2.5 6.063.605 2.265 2.842 3.983 5.187 4h71.5l-72.97 42.093h-19.75c-2.83-.002-5.408 2.576-5.405 5.408v109.406h10.813v-104h15.812c.938 0 1.874-.25 2.688-.72l91.625-52.905c2.055-1.17 3.17-3.81 2.562-6.095-.608-2.285-2.854-4.007-5.22-4h-71.467l74.125-42.813c2.055-1.17 3.17-3.808 2.562-6.093-.608-2.286-2.854-4.01-5.22-4h-71.467l74.125-42.814c2.055-1.17 3.17-3.808 2.562-6.094-.608-2.285-2.854-4.007-5.22-4H607.314v.032c-11.74.25-24.32 7.898-24.313 16.03-.007-8.068-12.37-15.665-24.063-16.03v-.03H233c-.042-.002-.083-.002-.125 0zm351.5 224.75l-14.094 7.593v97.78h25.47v-99.25zM340.47 482.875v100.688h-15.845c-.938 0-1.874.25-2.688.718L230.28 637.19c-2.028 1.185-3.112 3.793-2.5 6.062.614 2.27 2.87 3.997 5.22 4h71.53l-74.25 42.844c-2.028 1.186-3.112 3.793-2.5 6.062.614 2.27 2.87 3.998 5.22 4h71.53L230.28 743c-2.028 1.186-3.112 3.793-2.5 6.063.614 2.27 2.87 3.997 5.22 4h325.063c11.94 0 24.93-7.793 24.937-16.063-.007 8.27 13 16.063 24.906 16.063H933.03c2.347-.017 4.552-1.735 5.158-4 .605-2.266-.475-4.88-2.5-6.063l-74.25-42.844h71.593c2.347-.016 4.552-1.734 5.158-4 .605-2.266-.475-4.88-2.5-6.062l-74.25-42.844h71.593c2.347-.016 4.552-1.734 5.158-4 .605-2.266-.475-4.88-2.5-6.063l-91.625-52.906c-.814-.466-1.75-.717-2.688-.717h-15.813V482.875H814.75V588.97c0 2.83 2.575 5.408 5.406 5.405H840l72.813 42.063h-71.438c-2.365-.007-4.641 1.714-5.25 4-.608 2.285.507 4.924 2.563 6.093l74.125 42.814h-71.438c-2.365-.007-4.641 1.715-5.25 4-.608 2.285.507 4.924 2.563 6.093l74.125 42.813c-100.255.042-200.508-.03-300.72-.03h-.312c-11.824 0-22.905-9.217-22.905-22.064.018-25.354-.063-50.93-.063-76.656l6.938-14.375V519.188h-25.47v109.937l6.94 14.375c.09 25.62-.205 51.318-.126 76.656 0 12.847-9.048 22.063-22.907 22.063h-.312c-100.21.04-200.464.03-300.72.03l74.19-42.813c2.06-1.17 3.146-3.805 2.53-6.093-.616-2.29-2.88-4.022-5.25-4h-71.47l74.19-42.813c2.06-1.17 3.146-3.804 2.53-6.092-.616-2.29-2.88-4.022-5.25-4h-71.47l72.876-42.063h19.845c2.82-.013 5.378-2.585 5.375-5.406V482.874z" transform="matrix(.784 0 0 .784 125.93 47.202)" />
    <path fill="#f9f9f9" d="M584.07 365.752l-34.376 18.533c-1.558.84-2.943 1.51-3.72 2.117-.775.607-.967.82-.967 1.723v59.05c0 2 1.536 3.536 3.538 3.536h71.05c2.004 0 3.54-1.534 3.54-3.536v-59.05c0-.938-.24-1.3-.97-1.904-.728-.604-2.02-1.2-3.506-1.814-.073-.036-.144-.077-.212-.12z" />
    <path fill="url(#l)" d="M304.636 410.628c2.198 0 4.2 2 4.2 4.2v113.99c0 2.2-2.002 4.2-4.2 4.2h-18.6v44.098l8.288 17.174v2.475l-24.898 14.36V594.29l8.212-16.95v-48.52c0-2.2 2-4.2 4.2-4.2h18.598V419.027H121.05V523.42h18.597c2.2 0 4.2 2 4.2 4.2V791.6h133.828V764.08l-3.9-8.025h16.2l-3.9 8.1V795.8c0 2.2-2 4.2-4.2 4.2H139.647c-2.2 0-4.2-2-4.2-4.2V531.82H116.85c-2.2 0-4.2-2.002-4.2-4.2V414.827c0-2.2 2-4.2 4.2-4.2zm-10.312 205.485v34.127h-24.898v-19.765zm-.975 34.123l-23.924 13.8v-13.8zm.974 18.786v34.13h-24.898v-19.77zm-.975 34.122l-23.924 13.8v-13.8zm.974 18.787v24.323l-4.41 9.918H273.8l-4.374-9.917v-9.96z" transform="matrix(.784 0 0 .784 125.93 47.202)" />
    <path fill="#f9f9f9" d="M480.192 447.687c.447-.834.69-12.27.69-32.547 0-27.532-.126-31.385-1.046-32.306-.922-.92-4.822-1.045-32.825-1.045-29.94 0-31.84.07-32.88 1.215-.99 1.096-1.1 4.31-1.1 32.306 0 20.16.243 31.543.69 32.377.666 1.246 1.737 1.287 33.236 1.287 31.498 0 32.57-.04 33.236-1.287z" />
    <path fill="url(#m)" d="M294.328 634.112c.012-8.767-24.9 2.698-24.9 11.357v-14.983l24.9-14.368z" transform="matrix(.784 0 0 .784 125.93 47.202)" />
    <path fill="url(#n)" d="M294.323 686.693c.012-8.766-25.103 2.71-25.103 11.368l.213-14.688 24.89-14.344z" transform="matrix(.784 0 0 .784 125.93 47.202)" />
    <path fill="url(#o)" d="M294.323 733.023c-2.533-4.683-24.89 4.612-24.89 13.272l-.037-9.96 24.927-14.41z" transform="matrix(.784 0 0 .784 125.93 47.202)" />
    <path fill="url(#p)" d="M268.89 271.813l24.376 14.062h.53v33.813l-24.905-14.344v-19.47zm-124.468 51.906c12.916 0 23.375 10.458 23.375 23.374V437.5h107.625v-85.22l-6.53-17.78v-9.78l23.53 13.56-5.125 13.94v142.125c0 4.7-3.8 8.5-8.5 8.5H151.422c-4.7 0-8.5-3.8-8.5-8.5V354.093c0-5.653-4.598-10.25-10.25-10.25-.38 0-.757-.008-1.125.03v-.03h-36.78V323.72h49.155v.03c.165-.004.334-.03.5-.03z" transform="matrix(.784 0 0 .784 125.93 47.202)" />
    <path fill="url(#q)" d="M270.39 108.938c6.458 0 12.295 2.614 16.532 6.843.005.006.026-.004.03 0 .266.266.5.537.75.814 1.01 1.107 1.906 2.308 2.69 3.594.125.208.254.414.374.625 1.925 3.394 3.03 7.32 3.03 11.5v81.593l-24.905-14.344v-60.249c0-1.74-.422-3.376-1.187-4.813v-25.562h2.22v.03c.164-.002.302-.03.468-.03zm-10.687 20.187c.275.028.544.076.813.125-.265-.048-.542-.097-.813-.125zm3.97 1.25c.178.1.358.2.53.313-.173-.113-.35-.21-.53-.313zm5.218 88.53l24.376 14.064h.53v33.843l-24.905-14.344v-33.564zm0 52.907l24.376 14.063h.53v33.813l-24.905-14.344v-33.532z" transform="matrix(.784 0 0 .784 125.93 47.202)" />
    <path fill="url(#r)" d="M268.897 236.898c-.012-8.767 24.902 2.698 24.902 11.357l-.003-14.98-24.9-14.37z" transform="matrix(.784 0 0 .784 125.93 47.202)" />
    <path fill="url(#s)" d="M268.902 289.48c-.012-8.767 25.103 2.708 25.103 11.368l-.212-14.69-24.89-14.344z" transform="matrix(.784 0 0 .784 125.93 47.202)" />
    <path fill="url(#t)" d="M268.902 334.422c2.533-4.684 19.004 7.8 19.004 16.46l4.35-12.622-23.354-13.55z" transform="matrix(.784 0 0 .784 125.93 47.202)" />
    <path fill="url(#u)" d="M299.46 410.628c-8.767-.012-4.036 8.356.805 8.356l-12.97.05-.048-8.433z" transform="matrix(.784 0 0 .784 125.93 47.202)" />
    <path fill="url(#v)" d="M179.27 410.628c-8.767-.012-3.295 8.356 1.546 8.356l-12.993.05-.024-8.433z" transform="matrix(.784 0 0 .784 125.93 47.202)" />
    <path fill="url(#w)" d="M234.11 100c4.093 0 7.374 3.344 7.374 7.438v1.5h26.22c38.777 40.865 0 17.04 0 25.562-1.72-3.23-5.12-5.438-9.032-5.438-.38 0-.757-.008-1.125.032v-.03h-16.063v1.53c0 4.093-3.28 7.406-7.375 7.406h-77.626c-2.302 0-4.338-1.042-5.687-2.688-.09-.11-.167-.23-.25-.343-.893-1.227-1.438-2.738-1.438-4.376v-1.53H125.67v-20.126h23.437v-1.5c0-4.094 3.28-7.438 7.374-7.438zm-9.563 5.656c-2.05 0-3.806 1.25-4.563 3.032-.088.21-.154.43-.218.656-.02.072-.047.145-.063.22-.02.082-.047.164-.062.25-.012.07-.022.144-.03.217-.024.197-.032.393-.032.595 0 2.734 2.235 4.938 4.97 4.938 2.733 0 4.936-2.204 4.936-4.938 0-2.734-2.203-4.97-4.937-4.97zm-14.625 0c-2.05 0-3.806 1.25-4.563 3.032-.09.21-.155.43-.22.656-.02.072-.046.145-.062.22-.02.082-.047.164-.062.25-.013.07-.023.144-.032.217-.023.197-.03.393-.03.595 0 2.734 2.234 4.938 4.968 4.938s4.937-2.204 4.937-4.938c0-2.734-2.204-4.97-4.938-4.97zm-14.625 0c-2.05 0-3.806 1.25-4.563 3.032-.088.21-.154.43-.218.656-.02.072-.047.145-.063.22-.02.082-.047.164-.062.25-.012.07-.022.144-.03.217-.024.197-.032.393-.032.595 0 2.734 2.235 4.938 4.97 4.938 2.733 0 4.936-2.204 4.936-4.938 0-2.734-2.203-4.97-4.937-4.97zm-14.625 0c-2.734 0-4.938 2.235-4.938 4.97 0 2.733 2.204 4.937 4.938 4.937 2.734 0 4.937-2.204 4.937-4.938 0-2.734-2.204-4.97-4.938-4.97zm-14.625 0c-2.734 0-4.938 2.235-4.938 4.97 0 2.733 2.203 4.937 4.937 4.937 2.734 0 4.937-2.204 4.937-4.938 0-2.734-2.203-4.97-4.937-4.97zm58.5 16.813c-2.734 0-4.97 2.203-4.97 4.936 0 2.734 2.236 4.97 4.97 4.97 2.734 0 4.937-2.236 4.937-4.97 0-2.733-2.203-4.937-4.937-4.937zm-14.625 0c-2.734 0-4.97 2.203-4.97 4.936 0 2.734 2.236 4.97 4.97 4.97 2.733 0 4.937-2.236 4.937-4.97 0-2.733-2.205-4.937-4.938-4.937zm-14.625 0c-2.734 0-4.97 2.203-4.97 4.936 0 2.734 2.236 4.97 4.97 4.97 2.734 0 4.937-2.236 4.937-4.97 0-2.733-2.203-4.937-4.937-4.937zm-14.625 0c-2.734 0-4.938 2.203-4.938 4.936 0 2.734 2.204 4.97 4.938 4.97 2.734 0 4.937-2.236 4.937-4.97 0-2.733-2.204-4.937-4.938-4.937zm-14.625 0c-2.734 0-4.938 2.203-4.938 4.936 0 2.734 2.203 4.97 4.937 4.97 2.734 0 4.937-2.236 4.937-4.97 0-2.733-2.203-4.937-4.937-4.937z" transform="matrix(.784 0 0 .784 125.93 47.202)" />
    <path fill="url(#x)" d="M861.344 410.628c-2.2 0-4.2 2-4.2 4.2v113.99c0 2.2 2 4.2 4.2 4.2h18.598v44.098l-8.286 17.174v2.475l24.898 14.36V594.29l-8.212-16.95v-48.52c0-2.2-2-4.2-4.2-4.2h-18.6V419.027h179.39V523.42h-18.6c-2.2 0-4.2 2-4.2 4.2V791.6H888.304V764.08l3.9-8.025h-16.2l3.9 8.1V795.8c0 2.2 2.002 4.2 4.2 4.2h142.228c2.2 0 4.2-2 4.2-4.2V531.82h18.598c2.2 0 4.2-2.002 4.2-4.2V414.827c0-2.2-2-4.2-4.2-4.2zm10.312 205.485v34.127h24.898v-19.765zm.974 34.123l23.924 13.8v-13.8zm-.974 18.786v34.13h24.898v-19.77zm.974 34.122l23.924 13.8v-13.8zm-.974 18.787v24.323l4.41 9.918h16.113l4.374-9.917v-9.96z" transform="matrix(.784 0 0 .784 125.93 47.202)" />
    <path fill="#f9f9f9" d="M685.796 447.687c-.447-.834-.69-12.27-.69-32.547 0-27.532.126-31.385 1.046-32.306.92-.92 4.822-1.045 32.825-1.045 29.942 0 31.842.07 32.88 1.215.99 1.096 1.1 4.31 1.1 32.306 0 20.16-.242 31.543-.688 32.377-.668 1.246-1.74 1.287-33.238 1.287s-32.57-.04-33.236-1.287z" />
    <path fill="url(#y)" d="M871.65 634.112c-.01-8.767 24.903 2.698 24.903 11.357v-14.983l-24.9-14.368z" transform="matrix(.784 0 0 .784 125.93 47.202)" />
    <path fill="url(#z)" d="M871.656 686.693c-.012-8.766 25.103 2.71 25.103 11.368l-.213-14.688-24.89-14.344z" transform="matrix(.784 0 0 .784 125.93 47.202)" />
    <path fill="url(#A)" d="M871.656 733.023c2.534-4.683 24.892 4.612 24.892 13.272l.036-9.96-24.928-14.41z" transform="matrix(.784 0 0 .784 125.93 47.202)" />
    <path fill="url(#B)" d="M897.09 271.813l-24.376 14.062h-.532v33.813l24.907-14.344v-19.47zm124.467 51.906c-12.915 0-23.375 10.458-23.375 23.374V437.5H890.558v-85.22l6.532-17.78v-9.78l-23.533 13.56 5.125 13.94v142.125c0 4.7 3.8 8.5 8.5 8.5h127.375c4.7 0 8.5-3.8 8.5-8.5V354.093c0-5.653 4.598-10.25 10.25-10.25.38 0 .758-.008 1.125.03v-.03h36.782V323.72h-49.156v.03c-.165-.004-.335-.03-.5-.03z" transform="matrix(.784 0 0 .784 125.93 47.202)" />
    <path fill="url(#C)" d="M895.59 108.938c-6.46 0-12.295 2.614-16.533 6.843-.01.006-.026-.004-.03 0-.265.266-.5.537-.75.814-1.008 1.107-1.906 2.308-2.688 3.594-.128.208-.256.414-.376.625-1.925 3.394-3.03 7.32-3.03 11.5v81.593l24.905-14.344v-60.249c0-1.74.422-3.376 1.187-4.813v-25.562h-2.22v.03c-.164-.002-.302-.03-.468-.03zm10.686 20.187c-.275.028-.544.076-.812.125.264-.048.54-.097.812-.125zm-3.968 1.25c-.18.1-.36.2-.532.313.174-.113.35-.21.532-.313zm-5.22 88.53l-24.374 14.064h-.532v33.843l24.907-14.344v-33.564zm0 52.907l-24.374 14.063h-.532v33.813l24.907-14.344v-33.532z" transform="matrix(.784 0 0 .784 125.93 47.202)" />
    <path fill="url(#D)" d="M897.082 236.898c.012-8.767-24.9 2.698-24.9 11.357v-14.98l24.898-14.37z" transform="matrix(.784 0 0 .784 125.93 47.202)" />
    <path fill="url(#j)" d="M897.077 289.48c.012-8.767-25.102 2.708-25.102 11.368l.212-14.69 24.89-14.344z" transform="matrix(.784 0 0 .784 125.93 47.202)" />
    <path fill="url(#i)" d="M897.077 334.422c-2.533-4.684-19.004 7.8-19.004 16.46l-4.348-12.622 23.352-13.55z" transform="matrix(.784 0 0 .784 125.93 47.202)" />
    <path fill="url(#h)" d="M866.52 410.628c8.766-.012 4.036 8.356-.805 8.356l12.97.05.048-8.433z" transform="matrix(.784 0 0 .784 125.93 47.202)" />
    <path fill="url(#g)" d="M986.71 410.628c8.767-.012 3.294 8.356-1.547 8.356l12.993.05.024-8.433z" transform="matrix(.784 0 0 .784 125.93 47.202)" />
    <path fill="url(#f)" d="M931.87 100c-4.093 0-7.375 3.344-7.375 7.438v1.5h-26.22c-38.776 40.865 0 17.04 0 25.562 1.72-3.23 5.12-5.438 9.033-5.438.378 0 .757-.008 1.125.032v-.03h16.062v1.53c0 4.093 3.282 7.406 7.375 7.406h77.625c2.302 0 4.338-1.042 5.688-2.688.09-.11.166-.23.25-.343.893-1.227 1.437-2.738 1.437-4.376v-1.53h23.438v-20.126h-23.438v-1.5c0-4.094-3.282-7.438-7.375-7.438zm9.563 5.656c2.05 0 3.805 1.25 4.562 3.032.09.21.154.43.22.656.02.072.045.145.06.22.02.082.05.164.063.25.013.07.022.144.03.217.025.197.032.393.032.595 0 2.734-2.235 4.938-4.97 4.938-2.733 0-4.937-2.204-4.937-4.938 0-2.734 2.204-4.97 4.938-4.97zm14.625 0c2.05 0 3.805 1.25 4.562 3.032.09.21.154.43.22.656.02.072.045.145.06.22.02.082.05.164.063.25.013.07.022.144.03.217.025.197.032.393.032.595 0 2.734-2.235 4.938-4.97 4.938-2.733 0-4.937-2.204-4.937-4.938 0-2.734 2.204-4.97 4.938-4.97zm14.625 0c2.05 0 3.805 1.25 4.562 3.032.09.21.154.43.22.656.02.072.045.145.06.22.02.082.05.164.063.25.013.07.022.144.03.217.025.197.032.393.032.595 0 2.734-2.235 4.938-4.97 4.938-2.733 0-4.937-2.204-4.937-4.938 0-2.734 2.204-4.97 4.938-4.97zm14.625 0c2.733 0 4.937 2.235 4.937 4.97 0 2.733-2.204 4.937-4.938 4.937-2.733 0-4.937-2.204-4.937-4.938 0-2.734 2.204-4.97 4.938-4.97zm14.625 0c2.733 0 4.937 2.235 4.937 4.97 0 2.733-2.204 4.937-4.938 4.937-2.733 0-4.937-2.204-4.937-4.938 0-2.734 2.204-4.97 4.938-4.97zm-58.5 16.813c2.733 0 4.968 2.203 4.968 4.936 0 2.734-2.234 4.97-4.967 4.97-2.734 0-4.938-2.236-4.938-4.97 0-2.733 2.204-4.937 4.938-4.937zm14.625 0c2.733 0 4.968 2.203 4.968 4.936 0 2.734-2.235 4.97-4.968 4.97-2.734 0-4.938-2.236-4.938-4.97 0-2.733 2.204-4.937 4.938-4.937zm14.625 0c2.733 0 4.968 2.203 4.968 4.936 0 2.734-2.234 4.97-4.967 4.97-2.734 0-4.938-2.236-4.938-4.97 0-2.733 2.204-4.937 4.938-4.937zm14.625 0c2.733 0 4.937 2.203 4.937 4.936 0 2.734-2.204 4.97-4.938 4.97-2.733 0-4.937-2.236-4.937-4.97 0-2.733 2.204-4.937 4.938-4.937zm14.625 0c2.733 0 4.937 2.203 4.937 4.936 0 2.734-2.204 4.97-4.938 4.97-2.733 0-4.937-2.236-4.937-4.97 0-2.733 2.204-4.937 4.938-4.937z" transform="matrix(.784 0 0 .784 125.93 47.202)" />
</svg>

