<?xml version="1.0" standalone="no"?>
<!DOCTYPE svg PUBLIC "-//W3C//DTD SVG 1.1//EN" "http://www.w3.org/Graphics/SVG/1.1/DTD/svg11.dtd" >
<svg xmlns="http://www.w3.org/2000/svg">
<metadata>Generated by IcoMoon</metadata>
<defs>
<font id="WFValvesSymbolsFont" horiz-adv-x="1024">
<font-face units-per-em="1024" ascent="960" descent="-64" />
<missing-glyph horiz-adv-x="1024" />
<glyph unicode="&#x20;" horiz-adv-x="512" d="" />
<glyph unicode="&#xe600;" glyph-name="diaphragm-A1_bg" d="M490.667 917.333c-186.984 0-341.699-74.438-361.333-170.667h722.667c-19.635 96.228-174.35 170.667-361.333 170.667zM129.333 704c19.635-96.228 174.35-170.667 361.333-170.667s341.699 74.438 361.333 170.667h-722.667z" />
<glyph unicode="&#xe601;" glyph-name="diaphragm-A1_fg" d="M490.667 960c-223.859 0-405.333-105.064-405.333-234.667 0-125.418 170.158-226.849 384-233.333v-214.667l-469.333 256v-597.333l490.667 281.333 490.667-281.333v597.333l-469.333-256v214.667c213.842 6.485 384 107.915 384 233.333 0 129.603-181.474 234.667-405.333 234.667zM490.667 917.333c186.984 0 341.699-74.438 361.333-170.667h-722.667c19.635 96.228 174.35 170.667 361.333 170.667zM129.333 704h722.667c-19.635-96.228-174.35-170.667-361.333-170.667s-341.699 74.438-361.333 170.667z" />
<glyph unicode="&#xe602;" glyph-name="pressure-indicator_bg" d="M938.667 426.667c0-247.424-200.576-448-448-448s-448 200.576-448 448v0c0 247.424 200.576 448 448 448s448-200.576 448-448v0z" />
<glyph unicode="&#xe603;" glyph-name="pressure-indicator_fg" d="M490.667 917.333c-270.988 0-490.667-219.679-490.667-490.667s219.679-490.667 490.667-490.667c270.988 0 490.667 219.679 490.667 490.667s-219.679 490.667-490.667 490.667zM490.667 874.667c116.139 0 221.737-44.846 301.333-117.333l-632-632c-72.488 79.597-117.333 185.194-117.333 301.333 0 247.424 200.576 448 448 448zM821.333 728c72.488-79.597 117.333-185.194 117.333-301.333 0-247.424-200.576-448-448-448-116.139 0-221.737 44.846-301.333 117.333l632 632z" />
<glyph unicode="&#xe604;" glyph-name="regulator-disc_bg" d="M42.667 746.667h938.667v-597.333h-938.667z" />
<glyph unicode="&#xe605;" glyph-name="regulator-disc_fg" d="M0 789.333v-682.667h1024v682.667h-1024zM42.667 746.667h441.333l-441.333-561.333v561.333zM540 746.667h441.333v-561.333l-441.333 561.333zM512 710.667l441.333-561.333h-882.667l441.333 561.333z" />
<glyph unicode="&#xe606;" glyph-name="rupture-disc-vacuum_bg" d="M42.667 746.667h938.667v-597.333h-938.667z" />
<glyph unicode="&#xe607;" glyph-name="rupture-disc-vacuum_fg" d="M0 106.667v682.667h1024v-682.667h-1024zM42.667 149.333h441.333l-441.333 561.333v-561.333zM540 149.333h441.333v561.333l-441.333-561.333zM512 185.333l441.333 561.333h-882.667l441.333-561.333z" />
<glyph unicode="&#xe608;" glyph-name="valve-3-way_bg" d="M42.667 861.333l440-426.667-440-426.667zM981.333 861.333v-853.333l-440 426.667zM512 405.333l440-426.667h-880z" />
<glyph unicode="&#xe609;" glyph-name="valve-3-way_fg" d="M0 960v-1024h1024v1024l-42.667-42.667-469.333-454.667-469.333 454.667zM42.667 861.333l440-426.667-440-426.667zM981.333 861.333v-853.333l-440 426.667zM512 405.333l440-426.667h-880z" />
<glyph unicode="&#xe60a;" glyph-name="valve-4-way_bg" d="M42.667 917.333h938.667v-938.667h-938.667z" />
<glyph unicode="&#xe60b;" glyph-name="valve-4-way_fg" d="M0 960v-1024h1024v1024h-1024zM72 917.333h880l-440-440-440 440zM42.667 888l440-440-440-440v880zM981.333 888v-880l-440 440 440 440zM512 418.667l440-440h-880l440 440z" />
<glyph unicode="&#xe60c;" glyph-name="valve-angle_bg" d="M982.667 860v-853.333l-426.667 426.667zM526.667 404l426.667-426.667h-853.333z" />
<glyph unicode="&#xe60d;" glyph-name="valve-angle_fg" d="M1024 960l-34.667-36-953.333-953.333-36-34.667h1024v973.333zM982.667 860v-853.333l-426.667 426.667zM526.667 404l426.667-426.667h-853.333zM982.667-20v-2.667h-2.667z" />
<glyph unicode="&#xe60e;" glyph-name="valve-ball_bg" d="M42.667 676l349.333-188c-4.318-12.83-8-25.714-8-40s3.682-27.17 8-40l-349.333-188zM981.333 676v-456l-349.333 188c4.318 12.83 8 25.714 8 40s-3.682 27.17-8 40z" />
<glyph unicode="&#xe60f;" glyph-name="valve-ball_fg" d="M0 746.667v-597.333l410.667 220c23.419-30.13 60.217-49.333 101.333-49.333s77.915 19.203 101.333 49.333l410.667-220v597.333l-410.667-220c-23.419 30.13-60.217 49.333-101.333 49.333s-77.915-19.203-101.333-49.333l-410.667 220zM42.667 676l349.333-188c-4.318-12.83-8-25.714-8-40s3.682-27.17 8-40l-349.333-188v456zM981.333 676v-456l-349.333 188c4.318 12.83 8 25.714 8 40s-3.682 27.17-8 40l349.333 188z" />
<glyph unicode="&#xe610;" glyph-name="valve-bleed-purge_bg" d="M133.333 890.667l298.667-124-298.667-122.667zM848 890.667v-246.667l-298.667 122.667zM373.333 533.333h234.667l-117.333-226.667zM490.667 204l117.333-226.667h-234.667z" />
<glyph unicode="&#xe611;" glyph-name="valve-bleed-purge_fg" d="M85.333 960v-384l33.333 13.333 350.667 145.333v-160h-170.667l14.667-28 150.667-292-150.667-290.667-14.667-28h384l-14.667 28-150.667 290.667 150.667 292 14.667 28h-170.667v160l350.667-145.333 33.333-13.333v384l-33.333-13.333-372-154.667-372 154.667-33.333 13.333zM133.333 890.667l298.667-124-298.667-122.667v246.667zM848 890.667v-246.667l-298.667 122.667 298.667 124zM373.333 533.333h234.667l-117.333-226.667-117.333 226.667zM490.667 204l117.333-226.667h-234.667l117.333 226.667z" />
<glyph unicode="&#xe612;" glyph-name="valve-blow-angle_bg" d="M104 917.333h877.333v-877.333z" />
<glyph unicode="&#xe613;" glyph-name="valve-blow-angle_fg" d="M0 960l37.333-36 476-476h-470.667v213.333h-42.667v-469.333h42.667v213.333h512l433.333-432 36-37.333v1024h-1024zM104 917.333h877.333v-877.333l-877.333 877.333z" />
<glyph unicode="&#xe614;" glyph-name="valve-blow-down_bg" d="M42.667 462.667l424-228-424-228zM981.333 462.667v-456l-424 228z" />
<glyph unicode="&#xe615;" glyph-name="valve-blow-down_fg" d="M508 960l-14.667-40 237.333-94.667-224-564-506.667 272v-597.333l512 274.667 512-274.667v597.333l-461.333-248 208 525.333 237.333-94.667 16 38.667-516 205.333zM42.667 462.667l424-228-424-228v456zM981.333 462.667v-456l-424 228 424 228z" />
<glyph unicode="&#xe616;" glyph-name="valve-butterfly_bg" d="M512 576c70.692 0 128-57.308 128-128s-57.308-128-128-128c-70.692 0-128 57.308-128 128s57.308 128 128 128z" />
<glyph unicode="&#xe617;" glyph-name="valve-butterfly_fg" d="M0 789.333v-682.667h42.667v602.667l313.333-192c-9.379-21.138-14.667-44.719-14.667-69.333 0-94.257 76.41-170.667 170.667-170.667 53.743 0 100.717 25.173 132 64l346.667-212 33.333-22.667v682.667h-42.667v-602.667l-313.333 192c9.379 21.138 14.667 44.719 14.667 69.333 0 94.257-76.41 170.667-170.667 170.667-53.743 0-100.717-25.173-132-64l-346.667 212-33.333 22.667zM512 576c70.692 0 128-57.308 128-128s-57.308-128-128-128c-70.692 0-128 57.308-128 128s57.308 128 128 128z" />
<glyph unicode="&#xe618;" glyph-name="valve-check-stop_fg" d="M510.667 960l-14.667-40 237.333-94.667-224-564-506.667 272-2.667-597.333h42.667l2.667 526.667 981.333-526.667-2.667 597.333h-42.667l2.667-526.667-436.479 235.589 225.812 568.411 237.333-94.667 16 38.667-277.333 110.667z" />
<glyph unicode="&#xe619;" glyph-name="valve-check_fg" d="M0 789.333v-682.667h42.667v602.667l948-580 33.333-22.667v682.667h-42.667v-602.667l-948 580z" />
<glyph unicode="&#xe61a;" glyph-name="valve-control-hand_bg" d="M405.333 917.333c145.419 0 264.039-112.93 273.333-256h-546.667c9.294 143.070 127.914 256 273.333 256z" />
<glyph unicode="&#xe61b;" glyph-name="valve-control-hand_fg" d="M405.333 960c-170.413 0-310.258-134.785-320-304v-37.333h298.667v-384l-384 213.333v-512l405.333 245.333 405.333-245.333v512l-384-213.333v256h554.667v-170.667h42.667v384h-42.667v-170.667h-554.667v85.333h298.667v37.333c-9.742 169.215-149.587 304-320 304zM405.333 917.333c145.419 0 264.039-112.93 273.333-256h-546.667c9.294 143.070 127.914 256 273.333 256z" />
<glyph unicode="&#xe61c;" glyph-name="valve-cylinder-actuated_bg" d="M213.333 917.333h554.667v-170.667h-554.667zM213.333 704h554.667v-170.667h-554.667z" />
<glyph unicode="&#xe61d;" glyph-name="valve-cylinder-actuated_fg" d="M170.667 960v-469.333h298.667v-213.333l-469.333 256v-597.333l490.667 281.333 490.667-281.333v597.333l-469.333-256v213.333h298.667v469.333zM213.333 917.333h554.667v-170.667h-554.667zM213.333 704h554.667v-170.667h-554.667z" />
<glyph unicode="&#xe61e;" glyph-name="valve-diaphragm_bg" d="M42.667 746.667h440l-440-510.667zM541.333 746.667h441.333v-510.667z" />
<glyph unicode="&#xe61f;" glyph-name="valve-diaphragm_fg" d="M0 789.333v-684l512 606.667 513.333-605.333v682.667h-1004zM42.667 746.667h440l-440-510.667zM541.333 746.667h441.333v-510.667z" />
<glyph unicode="&#xe620;" glyph-name="valve_bg" d="M490.667 917.333c169.656 0 307.823-131.752 318.667-298.667h-637.333c10.844 166.914 149.011 298.667 318.667 298.667z" />
<glyph unicode="&#xe621;" glyph-name="valve_fg" d="M490.667 960c-193.135 0-350.293-150.966-361.333-341.333h-1.333v-42.667h341.333v-298.667l-469.333 256v-597.333l490.667 281.333 490.667-281.333v597.333l-469.333-256v298.667h341.333v42.667h-1.333c-11.041 190.367-168.198 341.333-361.333 341.333zM490.667 917.333c169.656 0 307.823-131.752 318.667-298.667h-637.333c10.844 166.914 149.011 298.667 318.667 298.667z" />
<glyph unicode="&#xe624;" glyph-name="diaphragm-A1-off_bg" d="M490.667 917.333c-186.984 0-341.699-74.438-361.333-170.667h722.667c-19.635 96.228-174.35 170.667-361.333 170.667zM129.333 704c19.635-96.228 174.35-170.667 361.333-170.667s341.699 74.438 361.333 170.667h-722.667zM42.667 461.333v-453.333l402.667 233.333-402.667 220zM938.667 461.333l-402.667-220 402.667-233.333v453.333z" />
<glyph unicode="&#xe625;" glyph-name="diaphragm-A1-off_fg" d="M490.667 960c-223.859 0-405.333-105.064-405.333-234.667 0-125.418 170.158-226.849 384-233.333v-214.667l-469.333 256v-597.333l490.667 281.333 490.667-281.333v597.333l-469.333-256v214.667c213.842 6.485 384 107.915 384 233.333 0 129.603-181.474 234.667-405.333 234.667zM490.667 917.333c186.984 0 341.699-74.438 361.333-170.667h-722.667c19.635 96.228 174.35 170.667 361.333 170.667zM129.333 704h722.667c-19.635-96.228-174.35-170.667-361.333-170.667s-341.699 74.438-361.333 170.667zM42.667 461.333l402.667-220-402.667-233.333v453.333zM938.667 461.333v-453.333l-402.667 233.333 402.667 220z" />
<glyph unicode="&#xe626;" glyph-name="valve-3-way-c-b_bg" d="M42.667 861.333l440-426.667-440-426.667z" />
<glyph unicode="&#xe627;" glyph-name="valve-3-way-c-b_fg" d="M0 960v-1024h1024v1024l-42.667-42.667-469.333-454.667-469.333 454.667-42.667 42.667zM42.667 861.333l440-426.667-440-426.667v853.333zM541.333 434.667l440-426.667v-29.333h-29.333l-440 426.667 29.333 29.333z" />
<glyph unicode="&#xe628;" glyph-name="valve-3-way-a-b_bg" d="M512 405.333l440-426.667h-880z" />
<glyph unicode="&#xe629;" glyph-name="valve-3-way-a-b_fg" d="M0 960v-1024h1024v1024l-42.667-42.667-469.333-454.667-469.333 454.667zM512 405.333l440-426.667h-880z" />
<glyph unicode="&#xe62a;" glyph-name="valve-control-hand-off_bg" d="M405.333 917.333c-145.419 0-264.039-112.93-273.333-256h546.667c-9.295 143.070-127.914 256-273.333 256zM42.667 376v-369.333l317.333 196-317.333 173.333zM768 376l-317.333-173.333 317.333-196v369.333z" />
<glyph unicode="&#xe62b;" glyph-name="valve-control-hand-off_fg" d="M405.333 960c-170.413 0-310.258-134.785-320-304v-37.333h298.667v-384l-384 213.333v-512l405.333 245.333 405.333-245.333v512l-384-213.333v256h554.667v-170.667h42.667v384h-42.667v-170.667h-554.667v85.333h298.667v37.333c-9.742 169.215-149.587 304-320 304zM405.333 917.333c145.419 0 264.039-112.93 273.333-256h-546.667c9.294 143.070 127.914 256 273.333 256zM42.667 376l317.333-173.333-317.333-196v369.333zM768 376v-369.333l-317.333 196 317.333 173.333z" />
<glyph unicode="&#xe62c;" glyph-name="valve-cylinder-actuated-off_bg" d="M213.333 917.333h554.667v-170.667h-554.667zM213.333 704h554.667v-170.667h-554.667zM42.667 461.333l402.667-220-402.667-233.333zM938.667 461.333v-453.333l-402.667 233.333z" />
<glyph unicode="&#xe62d;" glyph-name="valve-cylinder-actuated-off_fg" d="M170.667 960v-469.333h298.667v-213.333l-469.333 256v-597.333l490.667 281.333 490.667-281.333v597.333l-469.333-256v213.333h298.667v469.333h-640zM213.333 917.333h554.667v-170.667h-554.667v170.667zM213.333 704h554.667v-170.667h-554.667v170.667zM42.667 461.333l402.667-220-402.667-233.333v453.333zM938.667 461.333v-453.333l-402.667 233.333 402.667 220z" />
<glyph unicode="&#xe62e;" glyph-name="valve-off_bg" d="M490.667 917.333c169.656 0 307.823-131.752 318.667-298.667h-637.333c10.844 166.914 149.011 298.667 318.667 298.667zM42.667 461.333l402.667-220-402.667-233.333zM938.667 461.333v-453.333l-402.667 233.333z" />
<glyph unicode="&#xe62f;" glyph-name="valve-off_fg" d="M490.667 960c-193.135 0-350.293-150.966-361.333-341.333h-1.333v-42.667h341.333v-298.667l-469.333 256v-597.333l490.667 281.333 490.667-281.333v597.333l-469.333-256v298.667h341.333v42.667h-1.333c-11.041 190.367-168.198 341.333-361.333 341.333zM490.667 917.333c169.656 0 307.823-131.752 318.667-298.667h-637.333c10.844 166.914 149.011 298.667 318.667 298.667zM42.667 461.333l402.667-220-402.667-233.333v453.333zM938.667 461.333v-453.333l-402.667 233.333 402.667 220z" />
<glyph unicode="&#xe630;" glyph-name="three-way-valve-ball-a-b_bg" d="M574.833 289.5l226.583-310.5h-578.833l226.5 310.417c18.632-7.626 40.253-12.062 62.908-12.083h0.009c22.646 0.062 44.233 4.525 63.973 12.578l-1.14-0.411z" />
<glyph unicode="&#xe631;" glyph-name="three-way-valve-ball-a-b_fg" d="M0 832v-768l375.583 281.75c-21.321 28.118-34.179 63.675-34.25 102.233v0.017c0.097 38.584 12.983 74.14 34.641 102.673l-0.308-0.423-375.667 281.75zM1024 832l-375.583-281.75c21.321-28.118 34.179-63.675 34.25-102.233v-0.017c-0.097-38.584-12.983-74.14-34.641-102.673l0.308 0.423 375.667-281.75v768zM512 576c-70.692 0-128-57.308-128-128v0c0-70.692 57.308-128 128-128v0c70.692 0 128 57.308 128 128v0c0 70.692-57.308 128-128 128v0zM409.75 311.667l-281.75-375.667h768l-281.75 375.583c-11.767-8.979-25.238-16.662-39.682-22.428l-1.151-0.406 228-310.083h-578.833l228.083 310.25c-15.626 6.138-29.126 13.795-41.341 23.058l0.424-0.308z" />
<glyph unicode="&#xe632;" glyph-name="three-way-valve-ball-c-b_bg" d="M353.167 384.127l-310.5-226.583v578.833l310.417-226.5c-7.626-18.632-12.062-40.253-12.083-62.908v-0.009c0.062-22.646 4.525-44.233 12.578-63.973l-0.411 1.14z" />
<glyph unicode="&#xe633;" glyph-name="three-way-valve-ball-c-b_fg" d="M0 832v-768l375.583 281.75c-8.979 11.767-16.662 25.238-22.428 39.682l-0.406 1.151-310.083-228v578.833l310.25-228.083c6.138 15.626 13.795 29.126 23.059 41.341l-0.309-0.424-375.667 281.75zM1024 832l-375.583-281.75c21.321-28.118 34.179-63.675 34.25-102.233v-0.017c-0.097-38.584-12.983-74.14-34.641-102.673l0.308 0.423 375.667-281.75v768zM512 576c-70.692 0-128-57.308-128-128v0c0-70.692 57.308-128 128-128v0c70.692 0 128 57.308 128 128v0c0 70.692-57.308 128-128 128v0zM409.75 311.667l-281.75-375.667h768l-281.75 375.583c-28.118-21.321-63.675-34.179-102.233-34.25h-0.017c-38.584 0.097-74.14 12.983-102.673 34.641l0.423-0.308z" />
<glyph unicode="&#xe634;" glyph-name="three-way-valve-ball-off_bg" d="M0 832v-768l375.583 281.75c-3.067 4.007-6.227 8.601-9.161 13.35l-0.422 0.734c0 0.012 0 0.027 0 0.042s0 0.029 0 0.044v-0.002c-15.44 25.114-24.608 55.522-24.667 88.067v0.016c0.119 23.14 4.825 45.148 13.252 65.207l-0.419-1.124c1.354 3.341 2.334 5.536 3.358 7.706l-0.441-1.040c1.803 4.035 3.252 6.962 4.781 9.84l-0.448-0.924c1.593 2.988 2.782 5.059 4.013 7.101l-0.429-0.768c2.169 3.778 3.988 6.689 5.891 9.539l-0.391-0.622c2.025 3.043 3.725 5.432 5.483 7.774l-0.317-0.44-375.667 281.75zM1024 832l-375.583-281.75c19.876-26.209 32.423-58.951 34.069-94.54l0.014-0.377c0.103-2.179 0.163-4.744 0.167-7.322v-0.011c-0.097-38.584-12.983-74.14-34.641-102.673l0.308 0.423 375.667-281.75v768zM512 576c-67.492-0.006-122.78-52.246-127.642-118.497l-0.025-0.419c-0.209-2.711-0.329-5.88-0.333-9.075v-0.008c0-70.692 57.308-128 128-128v0c70.692 0 128 57.308 128 128v0c0 70.692-57.308 128-128 128v0zM409.75 311.667l-281.75-375.667h768l-281.75 375.583c-4.026-3.066-8.647-6.227-13.424-9.159l-0.743-0.424c-25.114-15.44-55.522-24.608-88.067-24.667h-0.016c-23.14 0.119-45.148 4.825-65.207 13.252l1.124-0.419c-3.341 1.354-5.536 2.334-7.706 3.358l1.040-0.441c-4.035 1.803-6.962 3.252-9.84 4.781l0.923-0.448c-2.988 1.592-5.058 2.782-7.101 4.013l0.768-0.429c-3.778 2.169-6.688 3.988-9.539 5.891l0.622-0.391c-3.042 2.025-5.431 3.725-7.774 5.483l0.44-0.316z" />
<glyph unicode="&#xe635;" glyph-name="three-way-valve-ball-off_fg" d="M0 832v-768l375.667 281.75c-8.955 11.79-16.612 25.291-22.346 39.762l-0.404 1.155-310.25-228.083v578.833l310.083-228c6.171 15.595 13.854 29.066 23.138 41.25l-0.305-0.417-375.583 281.75zM1024 832l-375.583-281.75c8.979-11.767 16.662-25.238 22.428-39.682l0.406-1.152 310.083 228v-578.833l-310.25 228.083c-6.138-15.626-13.795-29.126-23.058-41.341l0.308 0.424 375.667-281.75v768zM512 576c-70.692 0-128-57.308-128-128v0c0-70.692 57.308-128 128-128v0c70.692 0 128 57.308 128 128v0c0 70.692-57.308 128-128 128v0zM409.75 311.667l-281.75-375.667h768l-281.75 375.583c-11.767-8.979-25.238-16.662-39.682-22.428l-1.151-0.406 228-310.083h-578.833l228.083 310.25c-15.626 6.138-29.126 13.795-41.341 23.058l0.424-0.308z" />
<glyph unicode="&#xe636;" glyph-name="three-way-valve-ball-a-c_bg" d="M670.5 510.833l310.5 226.583v-578.833l-310.417 226.5c7.626 18.632 12.062 40.253 12.083 62.908v0.009c-0.062 22.646-4.525 44.233-12.578 63.973l0.411-1.14z" />
<glyph unicode="&#xe637;" glyph-name="three-way-valve-ball-a-c_fg" d="M0 832v-768l375.667 281.75c-21.35 28.11-34.236 63.666-34.333 102.227v0.023c0.071 38.574 12.929 74.132 34.559 102.675l-0.309-0.425-375.583 281.75zM1024 832l-375.583-281.75c8.979-11.767 16.662-25.238 22.428-39.682l0.406-1.152 310.083 228v-578.833l-310.25 228.083c-6.138-15.626-13.795-29.126-23.058-41.341l0.308 0.424 375.667-281.75v768zM512 576c-70.692 0-128-57.308-128-128v0c0-70.692 57.308-128 128-128v0c70.692 0 128 57.308 128 128v0c0 70.692-57.308 128-128 128v0zM409.75 311.667l-281.75-375.667h768l-281.75 375.583c-28.118-21.321-63.675-34.179-102.233-34.25h-0.017c-38.584 0.097-74.14 12.983-102.673 34.641l0.423-0.308z" />
<glyph unicode="&#xe638;" glyph-name="valve-control-hand-1_bg" d="M405.333 917.333c-145.419 0-264.039-112.93-273.333-256h546.667c-9.295 143.070-127.914 256-273.333 256zM42.667 375.417v-363.75l313.417 189.667-313.417 174.083zM768 375.417l-313.417-174.083 313.417-189.667v363.75z" />
<glyph unicode="&#xe639;" glyph-name="valve-control-hand-1_fg" d="M405.333 960c-170.413 0-310.258-134.785-320-304v-37.333h298.667v-384l-384 213.333v-512l405.333 245.333 405.333-245.333v512l-384-213.333v256h554.667v-170.667h42.667v384h-42.667v-170.667h-554.667v85.333h298.667v37.333c-9.742 169.215-149.587 304-320 304zM405.333 917.333c145.419 0 264.039-112.93 273.333-256h-546.667c9.294 143.070 127.914 256 273.333 256zM42.667 375.417l313.417-174.083-313.417-189.667v363.75zM768 375.417v-363.75l-313.417 189.667 313.417 174.083z" />
<glyph unicode="&#xe63a;" glyph-name="three-way-valve-a-b_bg" d="M512 376.832l298.667-398.165h-597.333z" />
<glyph unicode="&#xe63b;" glyph-name="three-way-valve-a-b_fg" d="M0 832v-768l512 384-512 384zM512 448l512-384v768l-512-384zM512 448l-384-512h768l-384 512zM512 376.832l298.667-398.165h-597.333l298.667 398.165z" />
<glyph unicode="&#xe63c;" glyph-name="three-way-valve-c-b_bg" d="M42.667 746.667l398.165-298.667-398.165-298.667v597.333z" />
<glyph unicode="&#xe63d;" glyph-name="three-way-valve-c-b_fg" d="M1024 832v-768l-512 384 512 384zM512 448l-512-384v768l512-384zM512 448l384-512h-768l384 512zM42.667 746.667v-597.333l398.165 298.667-398.165 298.667z" />
<glyph unicode="&#xe63e;" glyph-name="three-way-valve-off_bg" d="M0 832v-768l512 384-512 384zM512 448l512-384v768l-512-384zM512 448l-384-512h768l-384 512z" />
<glyph unicode="&#xe63f;" glyph-name="three-way-valve-off_fg" d="M0 832v-768l512 384-512 384zM512 448l512-384v768l-512-384zM512 448l-384-512h768l-384 512zM42.667 746.667l398.165-298.667-398.165-298.667v597.333zM981.333 746.667v-597.333l-398.165 298.667 398.165 298.667zM512 376.832l298.667-398.165h-597.333l298.667 398.165z" />
<glyph unicode="&#xe640;" glyph-name="three-way-valve-a-c_bg" d="M981.333 746.667l-398.165-298.667 398.165-298.667v597.333z" />
<glyph unicode="&#xe641;" glyph-name="three-way-valve-a-c_fg" d="M0 832v-768l512 384-512 384zM512 448l512-384v768l-512-384zM512 448l-384-512h768l-384 512zM981.333 746.667v-597.333l-398.165 298.667 398.165 298.667z" />
<glyph unicode="&#xe642;" glyph-name="pressure-regulator-valve_bg" d="M448 832c0.044 0 0.097 0 0.149 0 144.943 0 263.575-112.646 273.129-255.167l0.045-0.833h-546.645c9.598 143.354 128.231 256 273.173 256 0.052 0 0.105 0 0.157 0h-0.008zM85.333 375.424l313.429-174.080-313.429-189.696zM810.667 375.424v-363.776l-313.429 189.696z" />
<glyph unicode="&#xe643;" glyph-name="pressure-regulator-valve_fg" d="M426.667 960v-86.4c-160.597-10.752-289.323-140.843-298.667-302.933v-37.333h298.667v-298.667l-384 213.333v-512l397.824 240.853 0.512-0.597 3.157 2.731 3.84 2.347 405.333-245.333v512l-276.651-153.685 361.984 314.965v350.72h-512zM469.333 917.333h426.667v-289.28l-426.667-370.773v276.053h298.667v37.333c-9.344 162.091-138.069 292.181-298.667 302.933v43.733zM448 832c0.044 0 0.097 0 0.149 0 144.943 0 263.575-112.646 273.129-255.167l0.045-0.833h-546.645c9.598 143.354 128.231 256 273.173 256 0.052 0 0.105 0 0.157 0h-0.008zM85.333 375.424l313.429-174.080-313.429-189.696v363.819zM810.667 375.424v-363.776l-313.429 189.696 313.429 174.080z" />
</font>
</defs>
</svg>
